<svg id="_ëîé_1" data-name="‘ëîé_1" xmlns="http://www.w3.org/2000/svg" viewBox="0 0 3000 2000"><title>4408 [Converted]</title><path d="M2367.22,965.91H2194.31L2088.82,820.59a61.85,61.85,0,0,0-12-12.82l-.27-.22-1.28-1-.25-.19-1.47-1.06-.41-.28-1.11-.75-.51-.34-1.26-.78L2070,803c-.51-.3-1-.6-1.54-.89l-.45-.25-1.25-.68-.38-.2c-1.14-.59-2.3-1.14-3.47-1.65l-.13-.06a61.52,61.52,0,0,0-34-4.47l-.13,0-1.78.3-.3.06c-.63.12-1.25.24-1.88.38l-.36.09-1.16.27-244.56,60.55a61.83,61.83,0,0,0-37.9,27.77l-85.57,140a61.84,61.84,0,1,0,105.53,64.51L1833,970.4l100.94-25-78.32,188.7-99,162.53H1524.76a61.84,61.84,0,0,0,0,123.68h266.65a61.83,61.83,0,0,0,52.82-29.67l78.59-129.07L2027.23,1366V1580.2a61.84,61.84,0,1,0,123.68,0V1340.37a61.8,61.8,0,0,0-18.11-43.73l-148.91-148.91,69-166.14,59.89,82.49a61.83,61.83,0,0,0,50,25.52h204.44a61.85,61.85,0,0,0,0-123.69Z"/><circle cx="2107.59" cy="647.35" r="126.52" transform="translate(159.55 1679.89) rotate(-45)"/><circle cx="538.92" cy="647.35" r="126.52" transform="translate(-299.9 570.68) rotate(-45)"/><path d="M1121.74,1296.64H889.84l-99-162.53-78.33-188.7,100.94,25,72.32,118.29a61.84,61.84,0,0,0,105.53-64.51l-85.57-140a61.8,61.8,0,0,0-37.9-27.77L623.31,795.9l-1.16-.27-.36-.09c-.62-.14-1.25-.26-1.87-.38l-.31-.06c-.59-.11-1.19-.21-1.78-.3l-.12,0a61.55,61.55,0,0,0-34,4.47l-.13.06c-1.17.51-2.33,1.06-3.46,1.65l-.38.2-1.26.68-.45.25c-.52.29-1,.59-1.54.89l-.28.18-1.25.78-.52.34-1.11.75-.41.28c-.49.35-1,.7-1.46,1.06l-.26.19-1.27,1-.28.22a61.54,61.54,0,0,0-12,12.82L452.19,965.91H279.28a61.85,61.85,0,0,0,0,123.69H483.72a61.86,61.86,0,0,0,50-25.52l59.88-82.49,69,166.14L513.7,1296.64a61.85,61.85,0,0,0-18.11,43.73V1580.2a61.84,61.84,0,0,0,123.68,0V1366l104.41-104.4,78.59,129.07a61.83,61.83,0,0,0,52.82,29.67h266.65a61.84,61.84,0,1,0,0-123.68Z"/><polygon points="1924.06 791.23 1924.06 385.65 2228.39 385.65 2228.39 357.29 1895.7 357.29 1895.7 798.25 1924.06 791.23"/><path d="M2005.59,1614.35h-81.53V1314.07l-28.36,46.58v282.06h128.4A90.63,90.63,0,0,1,2005.59,1614.35Z"/><path d="M2154,1642.71h74.35v-28.36h-55.84A90.45,90.45,0,0,1,2154,1642.71Z"/><path d="M678.59,580.25V385.65H982.92V357.29H650.23V539.67A155.14,155.14,0,0,1,678.59,580.25Z"/><path d="M678.59,714.45A155.14,155.14,0,0,1,650.23,755v18.32l28.36,7Z"/><polygon points="678.59 1346.77 650.23 1375.13 650.23 1642.71 982.92 1642.71 982.92 1614.35 678.59 1614.35 678.59 1346.77"/><polygon points="1013.66 242.84 1013.66 1000 1013.66 1757.16 1377.08 1642.71 1377.08 1000 1377.08 357.29 1013.66 242.84"/><polygon points="2259.13 242.84 2259.13 1000 2259.13 1757.16 2622.56 1642.71 2622.56 1000 2622.56 357.29 2259.13 242.84"/></svg>