<svg id="Layer_1" data-name="Layer 1" xmlns="http://www.w3.org/2000/svg" viewBox="0 0 1781.91 1500"><title>52439ebf-7507-49b9-bded-ff5675f2db12 [Converted]</title><path d="M1273.21,1026.9a144.12,144.12,0,0,1-1.54,26.58,165.36,165.36,0,0,1-18.08,54c-8.85,16.49-21.11,31.15-35.13,43.5a157.59,157.59,0,0,1-47.89,28.78,154.92,154.92,0,0,1-26.44,7.48,177.43,177.43,0,0,1-28.46,2.94c-1.11,0-2.24,0-3.34,0a159.38,159.38,0,0,1-52.81-9.55,153.59,153.59,0,0,1-47.1-26.8,158.44,158.44,0,0,1-20.64-20.39,177.64,177.64,0,0,1-16.25-23.27c-.61-1-1.21-2.1-1.8-3.17a11.2,11.2,0,0,1-.78-1.16s0,0-.05,0a6.28,6.28,0,0,0-.3-.65c-.21-.37-.43-.75-.62-1.15a7.92,7.92,0,0,1-.37-.78,163,163,0,0,1-8.34-19.51,167.34,167.34,0,0,1-5.12-17.86c-.34-1.37-.61-2.72-.94-4.06-1-5-1.77-10.15-2.31-15.23a.44.44,0,0,0,0-.19c0-.46-.08-.91-.13-1.37s0-.89,0-1.35a169.58,169.58,0,0,1,1.48-38c5.22-35.14,23.3-68.49,49.53-92.36A159.25,159.25,0,0,1,1051.16,884a163.4,163.4,0,0,1,53.93-12.53c38-2.21,76.3,10,106.38,33.22a162.48,162.48,0,0,1,20.76,19.37,173.22,173.22,0,0,1,17.27,23,142.85,142.85,0,0,1,12.3,24.38,165.56,165.56,0,0,1,8.1,26.9A162.79,162.79,0,0,1,1273.21,1026.9Zm994.62,94.56a82.08,82.08,0,0,0-7.64-3.71,95.86,95.86,0,0,0-57.81-5.38c-3,.67-6,1.5-8.93,2.44-10.6,1.37-21.23,2.72-31.83,4-42.8,5.35-85.55,10.87-128.32,16.25q-65.41,8.26-130.8,16.52-31.63,4-63.25,8l-30.91,3.91c-5.3.64-10.62,1.23-15.9,2a.41.41,0,0,1-.16,0h-.11l-.88.16a1.59,1.59,0,0,0-.38.06,9.58,9.58,0,0,0-1.78.51,10.52,10.52,0,0,0-7.93,4.55c-.14.18-.27.4-.43.59a3.29,3.29,0,0,0-.3.46c-15.25,21.49-30.69,42.85-46,64.29q-36.24,50.73-72.53,101.37-18.24,25.5-36.51,51c-5.94,8.32-11.89,16.6-17.83,24.92-.94,1.31-1.88,2.66-2.83,4-1.23-1.8-2.5-3.63-3.74-5.44q-10.6-15.33-21.22-30.61-33.94-48.87-67.79-97.76-17.24-24.86-34.44-49.72l-16.79-24.21c-1.39-2-2.77-4-4.14-6q37.93-18.89,76-37.63c32.39-16,64.65-32.23,97.15-48a.91.91,0,0,1,.13-.08,10.22,10.22,0,0,0,1.67-1.05A10.64,10.64,0,0,0,1636,1114c.27-.32.51-.64.75-1,19-24.42,38.18-48.72,57.28-73.06q38.49-49.08,77-98.17c18.35-23.35,36.56-46.78,55-70.1.78-.73,1.53-1.46,2.28-2.24a71.6,71.6,0,0,0,15.69-23.89,72.57,72.57,0,0,0,4.78-23,70,70,0,0,0-115.14-55.93c-1.13,1-2.2,1.94-3.25,3a9.67,9.67,0,0,0-.75.67,73.14,73.14,0,0,0-9,11.14.76.76,0,0,0-.18.22c-.06.1-.11.21-.19.32-1.08,1.64-2.07,3.34-3,5.06h0a2.9,2.9,0,0,0-.27.48c-.08.14-.16.27-.21.38-4.22,5.24-8.45,10.52-12.67,15.79q-38.54,47.94-77.13,95.88-34.5,42.76-68.92,85.6a9.7,9.7,0,0,0-1.08,1.67q-11.41,6-22.81,12-54.32,28.65-108.66,57.22-54.51,28.74-109,57.44c-30.54,16-60.91,32.25-91.47,48.13a10.35,10.35,0,0,0-5.14,2.39q-26.84,23.21-53.8,46.3-47,40.47-94,80.89-46.61,40.15-93.24,80.28-23.94,20.54-47.81,41.1c-9.28-.61-18.59-1.1-27.87-1.64q-59-3.54-118.1-7-30.18-1.79-60.37-3.61c-8.28-.48-16.57-1-24.86-1.48a68.49,68.49,0,0,0-14.47-2.9,70.48,70.48,0,0,0-51.6,16.33c-1.1,1-2.2,1.93-3.25,3-.24.19-.51.44-.73.65a73.88,73.88,0,0,0-9,11.14,1.11,1.11,0,0,0-.16.24l-.21.3c-1.08,1.66-2.08,3.33-3,5h0c-.11.16-.19.35-.27.49s-.24.43-.32.59l0,0a9.28,9.28,0,0,0-.37.86,66.46,66.46,0,0,0-6.62,21.41,71.85,71.85,0,0,0,5.46,38.15,70.87,70.87,0,0,0,25,29.64,67.84,67.84,0,0,0,15,7.59,9.63,9.63,0,0,0,2.91,1.1c.27.06.54.08.81.14a3.17,3.17,0,0,1,.53,0c.08,0,.14,0,.22,0h.08a6.35,6.35,0,0,0,1,.08c2.34.22,4.68.59,7,.89l10.22,1.21,4.58.56c11.08,1.32,22.19,2.64,33.25,4q62.91,7.68,125.82,15.18,31.88,3.83,63.78,7.72,15.26,1.82,30.51,3.68l14.74,1.78c3.15.4,6.32.89,9.53,1.16a1.28,1.28,0,0,0,.29,0,7.91,7.91,0,0,0,.84.06,9.67,9.67,0,0,0,2.63-.38,1.63,1.63,0,0,0,.38,0,9.64,9.64,0,0,0,6.19-2.18c12.72-10.57,25.31-21.23,38-31.85q45.6-38.34,91.31-76.59c16.89-14.15,34-28.17,50.73-42.48,2.08,2.74,4.12,5.51,6.22,8.26q16.09,20.9,32.17,41.77,37.34,48.51,74.63,97,37,48,73.87,96,18.48,24.06,37,48.08,9.24,12,18.46,24c2.93,3.85,6,7.59,8.82,11.52l0,0a10.29,10.29,0,0,0,5,5.06,9.67,9.67,0,0,0,1.56.59.1.1,0,0,1,.08,0s.08,0,.1,0,.09,0,.11,0c3.47.81,6.89,1.83,10.31,2.75,31.77,8.5,63.54,16.89,95.31,25.42q59.16,15.86,118.4,31.58,30.61,8.16,61.25,16.36c9.44,2.53,18.89,5,28.33,7.56,5.33,1.42,10.68,2.8,16,4.2,2.34,15.33,4.44,30.75,6.67,46.11q4.4,30.25,8.77,60.55,8.71,60.33,17.43,120.71c4.2,29.08,8.56,58.14,12.7,87.25a94.35,94.35,0,0,0,12.32,51.59,95.47,95.47,0,0,0,38.2,37,10.43,10.43,0,0,0,1.08.62c.32.18.67.34,1,.53a7.77,7.77,0,0,0,.88.38,97.07,97.07,0,0,0,14.18,5.52,1.46,1.46,0,0,1,.27.08l.83.24c.14,0,.27.08.43.11a5.6,5.6,0,0,0,.73.21c.13,0,.3.08.43.14a7.71,7.71,0,0,0,.86.21,1.29,1.29,0,0,1,.24.05c.35.08.68.19,1,.27a92.71,92.71,0,0,0,18.57,2.59c1.13,0,2.23.05,3.33.05a97.56,97.56,0,0,0,39.31-8.31,96.48,96.48,0,0,0,34-25.72,94,94,0,0,0,21.36-49,96.11,96.11,0,0,0-4.12-41.65v-.05q-4.56-36.29-9.12-72.56-7.79-62.94-15.68-125.84-8-64.17-16-128.33-3.91-31.27-7.8-62.54-1.86-15.06-3.72-30.08c-.67-5.25-1.45-10.49-2-15.77a9.29,9.29,0,0,0-1.35-4,2.79,2.79,0,0,0-.26-.45,11.23,11.23,0,0,0-6.7-5.49c-.62-.19-1.24-.35-1.89-.54-31.53-9.5-63.16-18.67-94.77-28-32.58-9.63-65.21-19.1-97.71-28.86,1.48-2.18,3-4.36,4.44-6.54q25-37,50-74.06,35.23-52,70.4-104.22,17-25.05,34-50.2c7.74-11.46,15.68-22.84,23.29-34.41,2.85-.45,5.71-1,8.53-1.45,7.34-1.21,14.72-2.39,22.06-3.58q62.26-10,124.53-20,62-9.93,124-20,26.35-4.23,52.71-8.45h.05a94.84,94.84,0,0,0,70.21-34,94,94,0,0,0,21.36-49,96.61,96.61,0,0,0-8-51.82A94.78,94.78,0,0,0,2267.83,1121.46Zm-211.65,1045.1a32.89,32.89,0,0,0,21.34-8c31.26-27.82,63.48-54.59,95.23-81.84l44.09-37.79c6.89-5.91,13.68-12,20.72-17.82.37-.28.73-.58,1.08-.88l.11-.09a.53.53,0,0,0,.12-.1h0l0,0c12.4-11.51,13.48-31.39,2-44a31.39,31.39,0,0,0-44-2l0,0a.31.31,0,0,0-.12.1c-.51.43-1,.88-1.47,1.34-6.65,6-13.64,11.65-20.43,17.46q-22,19-44,37.86-30.87,26.46-61.71,52.94c-11.2,9.6-22.58,19-33.61,28.78-12.67,11.28-13.28,31.61-2,44A30.4,30.4,0,0,0,2056.18,2166.56Zm94,13a28.52,28.52,0,0,0,11.35-2.33c10.33-4.47,21.09-8,31.58-12.08q33.81-12.92,67.66-25.8c28-10.69,55.93-21.81,84.1-32.13.71-.21,1.42-.45,2.12-.72l2.29-.88c16-5.79,23.37-25.21,17.21-40.52a31.37,31.37,0,0,0-16.33-16.84c-8-3.5-16.11-3.07-24.18-.38-.78.25-1.54.6-2.29.86-.53.21-1.05.42-1.56.65-28.12,11-56.44,21.53-84.63,32.28q-33.86,12.91-67.66,25.8c-10.49,4-21.31,7.56-31.61,12-15.58,6.72-23.68,24.48-17.22,40.51A31.9,31.9,0,0,0,2150.14,2179.52Zm-72.29,67.11c3.2,0,6.4-.13,9.58-.21q80.54-1.78,161.06-3.31,35-.74,69.92-1.43c13.25-.28,26.58-.84,39.86-.84q1.08.06,2.19,0a3,3,0,0,1,.43,0c9.23.06,17.48-4.63,23-11.55a31.06,31.06,0,0,0,7.05-20.63c0-.79-.09-1.58-.18-2.36a31.57,31.57,0,0,0-9.37-19,31.74,31.74,0,0,0-22.66-8.67h-.43c-.59,0-1.17.05-1.75.09-3.4.12-6.81.12-10.22.18q-65.53,1.46-131.12,2.69-42.49.89-85,1.72c-18.16.38-36.32,1.08-54.48,1.08-16.94,0-30.64,15.68-30,32.2C2046.27,2233.93,2060.9,2246.63,2077.85,2246.63Z" transform="translate(-609.05 -750)" style="fill:#282828"/></svg>