<svg xmlns="http://www.w3.org/2000/svg" viewBox="0 0 1781.91 1500"><defs><style>.cls-1{fill:#282828;}</style></defs><title>kick</title><g id="Layer_2" data-name="Layer 2"><g id="Layer_1-2" data-name="Layer 1"><path class="cls-1" d="M664.16,276.9a144.11,144.11,0,0,1-1.53,26.58,165.83,165.83,0,0,1-18.08,54C635.7,374,623.43,388.62,609.41,401a157.54,157.54,0,0,1-47.88,28.78,154.77,154.77,0,0,1-26.45,7.48,177.2,177.2,0,0,1-28.46,2.94c-1.1.05-2.23.05-3.33.05a159.38,159.38,0,0,1-52.81-9.55,153.64,153.64,0,0,1-47.11-26.8,159,159,0,0,1-20.63-20.39,176.69,176.69,0,0,1-16.25-23.27c-.62-1-1.21-2.1-1.8-3.17a9.8,9.8,0,0,1-.78-1.16s0,0-.06,0c-.08-.22-.19-.43-.29-.65s-.43-.75-.62-1.15a8,8,0,0,1-.38-.78,163,163,0,0,1-8.34-19.51A167.28,167.28,0,0,1,349.11,316c-.35-1.37-.62-2.72-.94-4.06-1-5-1.78-10.15-2.32-15.23a.65.65,0,0,0,0-.19c0-.46-.08-.91-.14-1.37s0-.89,0-1.35a169,169,0,0,1,1.48-38c5.21-35.14,23.29-68.49,49.52-92.36A159.39,159.39,0,0,1,442.11,134a163.45,163.45,0,0,1,53.94-12.53c38-2.21,76.29,10,106.37,33.22a162.56,162.56,0,0,1,20.77,19.37,174.09,174.09,0,0,1,17.27,23,143.53,143.53,0,0,1,12.29,24.38,164.57,164.57,0,0,1,8.1,26.9A162.79,162.79,0,0,1,664.16,276.9Z"/><path class="cls-1" d="M1700,415.17a96.71,96.71,0,0,1,8,51.82,94.14,94.14,0,0,1-21.36,49,94.88,94.88,0,0,1-70.22,34h0q-26.36,4.2-52.7,8.45-62,10-124,20-62.26,10-124.53,20c-7.34,1.19-14.71,2.37-22.06,3.58-2.82.46-5.67,1-8.52,1.45-7.62,11.57-15.55,23-23.3,34.41q-17,25.1-33.95,50.2-35.19,52.1-70.4,104.22-25,37-50,74.06c-1.45,2.18-3,4.36-4.44,6.54,32.5,9.76,65.13,19.23,97.71,28.86,31.61,9.34,63.25,18.51,94.78,28,.64.19,1.26.35,1.88.54a11.23,11.23,0,0,1,6.7,5.49,2.24,2.24,0,0,1,.27.45,9.27,9.27,0,0,1,1.34,4c.51,5.28,1.29,10.52,2,15.77q1.85,15,3.71,30.08,3.91,31.26,7.8,62.54,8,64.17,16,128.33,7.88,62.91,15.69,125.84,4.51,36.29,9.12,72.56v0a96.1,96.1,0,0,1,4.11,41.65,93.88,93.88,0,0,1-21.36,49,96.3,96.3,0,0,1-34,25.72A97.54,97.54,0,0,1,1269,1500c-1.11,0-2.21,0-3.34,0a92.61,92.61,0,0,1-18.56-2.59c-.38-.08-.7-.19-1-.27a1.48,1.48,0,0,0-.24,0,6.76,6.76,0,0,1-.86-.21c-.14-.06-.3-.09-.43-.14a4.82,4.82,0,0,1-.73-.21c-.16,0-.3-.09-.43-.11l-.84-.24a1.6,1.6,0,0,0-.26-.08,96.63,96.63,0,0,1-14.18-5.52,7.94,7.94,0,0,1-.89-.38c-.3-.19-.65-.35-1-.53a10.28,10.28,0,0,1-1.07-.62,95.5,95.5,0,0,1-38.21-37,94.35,94.35,0,0,1-12.32-51.59c-4.14-29.11-8.5-58.17-12.69-87.25q-8.69-60.36-17.44-120.71-4.39-30.3-8.77-60.55c-2.23-15.36-4.33-30.78-6.67-46.11-5.33-1.4-10.68-2.78-16-4.2l-28.32-7.56q-30.63-8.19-61.26-16.36-59.2-15.81-118.4-31.58c-31.77-8.53-63.54-16.92-95.31-25.42-3.42-.92-6.83-1.94-10.3-2.75a.22.22,0,0,0-.11,0s0,0-.11,0a.09.09,0,0,0-.08,0,9.67,9.67,0,0,1-1.56-.59,10.38,10.38,0,0,1-5-5.06l0,0c-2.8-3.93-5.89-7.67-8.83-11.52q-9.19-12-18.45-24-18.53-24-37-48.08-36.93-48-73.88-96-37.27-48.54-74.62-97-16.07-20.89-32.18-41.77c-2.09-2.75-4.14-5.52-6.21-8.26-16.79,14.31-33.84,28.33-50.74,42.48q-45.67,38.25-91.3,76.59c-12.68,10.62-25.27,21.28-38,31.85a9.62,9.62,0,0,1-6.19,2.18,1.54,1.54,0,0,1-.37,0,9.74,9.74,0,0,1-2.64.38,7.54,7.54,0,0,1-.83-.06,1.37,1.37,0,0,1-.3,0c-3.2-.27-6.38-.76-9.52-1.16l-14.75-1.78q-15.25-1.84-30.5-3.68-31.89-3.84-63.79-7.72-62.91-7.59-125.82-15.18c-11.06-1.34-22.17-2.66-33.25-4l-4.57-.56L58.59,783.6c-2.34-.3-4.68-.67-7-.89a6.45,6.45,0,0,1-1-.08h-.08c-.08,0-.13,0-.21,0a3.29,3.29,0,0,0-.54-.05c-.27-.06-.54-.08-.81-.14a9.57,9.57,0,0,1-2.9-1.1,67.63,67.63,0,0,1-15-7.59,70.89,70.89,0,0,1-25-29.64A72,72,0,0,1,.59,705.93a66.7,66.7,0,0,1,6.62-21.41,9.37,9.37,0,0,1,.38-.86l0,0c.09-.16.19-.38.33-.59s.16-.33.27-.49h0c1-1.72,2-3.39,3-5l.21-.3a1.77,1.77,0,0,1,.17-.24,72.67,72.67,0,0,1,9-11.14,9,9,0,0,1,.72-.65c1.05-1,2.15-2,3.26-2.95a70.48,70.48,0,0,1,51.6-16.33,68.62,68.62,0,0,1,14.47,2.9c8.28.49,16.57,1,24.86,1.48q30.18,1.82,60.36,3.61,59,3.54,118.1,7c9.29.54,18.59,1,27.88,1.64q23.92-20.53,47.8-41.1,46.6-40.15,93.24-80.28,47-40.47,94-80.89,26.93-23.13,53.81-46.3a10.32,10.32,0,0,1,5.13-2.39c30.56-15.88,60.94-32.1,91.47-48.13q54.53-28.7,109-57.44Q870.67,277.42,925,248.81c7.62-4,15.2-8,22.82-12.05a9.08,9.08,0,0,1,1.07-1.67q34.47-42.76,68.93-85.6,38.61-47.94,77.12-95.88c4.23-5.27,8.45-10.55,12.67-15.79l.22-.38a1.94,1.94,0,0,1,.27-.48h0c1-1.72,2-3.42,3-5.06a2.23,2.23,0,0,0,.19-.32.79.79,0,0,1,.19-.22,73.08,73.08,0,0,1,9-11.14,9.67,9.67,0,0,1,.75-.67c1-1,2.13-2,3.26-3a69.93,69.93,0,0,1,115.14,55.93,72.31,72.31,0,0,1-4.79,23,71.57,71.57,0,0,1-15.68,23.89c-.76.78-1.51,1.51-2.29,2.24-18.4,23.32-36.61,46.75-55,70.1q-38.51,49.07-77,98.17c-19.1,24.34-38.28,48.64-57.27,73.06-.24.33-.49.65-.76,1a10.58,10.58,0,0,1-4.41,2.91,9.81,9.81,0,0,1-1.67,1.05.91.91,0,0,0-.13.08c-32.5,15.79-64.75,32-97.14,48q-38,18.76-76,37.63c1.37,2,2.74,4,4.14,6l16.79,24.21Q885.73,508.74,903,533.6q33.9,48.85,67.79,97.76Q981.38,646.65,992,662l3.74,5.44c.94-1.32,1.88-2.67,2.82-4l17.84-24.92q18.24-25.5,36.51-51,36.22-50.73,72.52-101.37c15.31-21.44,30.75-42.8,46-64.29a3.21,3.21,0,0,1,.29-.46c.16-.19.3-.41.43-.59a10.51,10.51,0,0,1,7.94-4.55,9.48,9.48,0,0,1,1.77-.51,1.76,1.76,0,0,1,.38-.06l.89-.16h.11a.47.47,0,0,0,.16,0c5.27-.76,10.6-1.35,15.9-2l30.91-3.91q31.63-3.94,63.24-8,65.38-8.28,130.8-16.52c42.78-5.38,85.52-10.9,128.32-16.25,10.6-1.32,21.23-2.67,31.83-4,2.93-.94,5.89-1.77,8.93-2.44a95.86,95.86,0,0,1,57.81,5.38,79.65,79.65,0,0,1,7.64,3.71A94.73,94.73,0,0,1,1700,415.17Z"/><path class="cls-1" d="M1424.49,1406.61c-11.33-12.38-10.71-32.71,2-44,11-9.79,22.41-19.18,33.6-28.78q30.87-26.47,61.71-52.94,22-18.93,44-37.86c6.79-5.81,13.78-11.47,20.43-17.46.47-.46,1-.91,1.47-1.34a.45.45,0,0,1,.13-.1l0,0a31.39,31.39,0,0,1,44,2c11.51,12.56,10.44,32.44-2,44l0,0h0a.53.53,0,0,1-.12.1l-.12.09c-.35.3-.71.6-1.07.88-7,5.77-13.83,11.91-20.72,17.82l-44.1,37.79c-31.74,27.25-64,54-95.23,81.84a32.86,32.86,0,0,1-21.33,8A30.4,30.4,0,0,1,1424.49,1406.61Z"/><path class="cls-1" d="M1511.93,1410c-6.46-16,1.64-33.79,17.21-40.51,10.31-4.47,21.12-8,31.61-12q33.82-12.92,67.66-25.8c28.2-10.75,56.52-21.26,84.63-32.28.51-.23,1-.44,1.57-.65.75-.26,1.5-.61,2.28-.86,8.07-2.69,16.22-3.12,24.19.38a31.4,31.4,0,0,1,16.33,16.84c6.16,15.31-1.27,34.73-17.22,40.52l-2.29.88c-.7.27-1.4.51-2.11.72-28.18,10.32-56.08,21.44-84.11,32.13q-33.86,12.87-67.66,25.8c-10.49,4-21.25,7.61-31.58,12.08a28.52,28.52,0,0,1-11.35,2.33A31.87,31.87,0,0,1,1511.93,1410Z"/><path class="cls-1" d="M1436.63,1466.58c-.59-16.52,13.1-32.2,30-32.2,18.16,0,36.32-.7,54.47-1.08q42.54-.84,85-1.72,65.57-1.33,131.12-2.69c3.41-.06,6.82-.06,10.21-.18.58,0,1.17-.08,1.76-.09h.43a31.67,31.67,0,0,1,22.65,8.67,31.52,31.52,0,0,1,9.37,19c.09.78.15,1.57.18,2.36a31,31,0,0,1-7.05,20.63c-5.51,6.92-13.77,11.61-23,11.55a3.1,3.1,0,0,0-.43,0c-.73,0-1.46,0-2.18,0-13.29,0-26.61.56-39.87.84q-35,.73-69.92,1.43-80.54,1.61-161.06,3.31c-3.17.08-6.37.21-9.58.21C1451.85,1496.63,1437.22,1483.93,1436.63,1466.58Z"/></g></g></svg>