<svg xmlns="http://www.w3.org/2000/svg" viewBox="0 0 1159.64 1514.31"><title>door_enter</title><g id="Layer_2" data-name="Layer 2"><g id="_ëîé_1" data-name="‘ëîé_1"><path d="M195,404.51A126.53,126.53,0,1,1,321.47,531,126.52,126.52,0,0,1,195,404.51ZM904.3,1053.8H672.4l-99-162.53-78.32-188.7,100.94,25,72.32,118.29A61.84,61.84,0,0,0,773.9,781.34l-85.57-140a61.87,61.87,0,0,0-37.9-27.77L405.87,553.06l-1.16-.28-.36-.08c-.62-.14-1.25-.26-1.87-.38l-.31-.06c-.59-.11-1.19-.21-1.78-.3l-.12,0a61.55,61.55,0,0,0-34,4.47l-.13.06c-1.17.51-2.33,1.06-3.46,1.65l-.38.2L361,559l-.45.26c-.52.29-1,.58-1.54.89l-.28.17c-.42.26-.84.52-1.25.79l-.52.34-1.11.74-.41.29c-.49.34-1,.7-1.46,1.06l-.26.19c-.43.32-.85.65-1.28,1l-.27.22a61.48,61.48,0,0,0-12,12.81L234.75,723.07H61.84a61.84,61.84,0,1,0,0,123.68H266.28a61.82,61.82,0,0,0,50-25.51l59.89-82.5,69,166.15-148.91,148.9a61.84,61.84,0,0,0-18.11,43.73v239.84a61.84,61.84,0,1,0,123.68,0V1123.14l104.41-104.41,78.59,129.07a61.84,61.84,0,0,0,52.82,29.68H904.3a61.84,61.84,0,1,0,0-123.68ZM461.15,337.41V142.81H765.48V114.45H432.79V296.83A155.14,155.14,0,0,1,461.15,337.41Zm0,134.2a155.14,155.14,0,0,1-28.36,40.58V530.5l28.36,7Zm0,632.32-28.36,28.36v267.58H765.48v-28.36H461.15ZM796.21,0V1514.31l363.43-114.44V114.45Z"/></g></g></svg>