<svg xmlns="http://www.w3.org/2000/svg" viewBox="0 0 1159.64 1514.31"><title>door_exit</title><g id="Layer_2" data-name="Layer 2"><g id="_ëîé_1" data-name="‘ëîé_1"><path d="M966.15,784.91a61.85,61.85,0,0,1-61.85,61.84H699.87a61.84,61.84,0,0,1-50-25.51l-59.88-82.5L521,904.89l148.9,148.9A61.85,61.85,0,0,1,688,1097.52v239.84a61.85,61.85,0,0,1-123.69,0V1123.14l-104.4-104.41L381.32,1147.8a61.84,61.84,0,0,1-52.82,29.68H61.84a61.84,61.84,0,1,1,0-123.68H293.75l99-162.53L471,702.57l-101,25L297.77,845.85a61.84,61.84,0,1,1-105.52-64.51l85.57-140a61.81,61.81,0,0,1,37.9-27.77l244.56-60.54,1.15-.28.36-.08c.63-.14,1.25-.26,1.88-.38l.31-.06c.59-.11,1.18-.21,1.78-.3l.12,0a61.56,61.56,0,0,1,34,4.47l.13.06c1.17.51,2.32,1.06,3.46,1.65l.38.2c.42.22.84.44,1.25.67l.46.26c.51.29,1,.58,1.53.89l.28.17,1.26.79.52.34c.37.24.74.49,1.1.75.14.09.28.18.41.28.5.34,1,.7,1.47,1.06l.25.19c.43.32.86.65,1.28,1l.27.22a61.53,61.53,0,0,1,12,12.81L731.39,723.07H904.3A61.85,61.85,0,0,1,966.15,784.91ZM644.67,531A126.52,126.52,0,1,0,518.15,404.51,126.52,126.52,0,0,0,644.67,531ZM461.15,548.38V142.81H765.48V114.45H432.79v441Zm81.52,823.13H461.15V1071.23l-28.36,46.57v282.07h128.4A90.48,90.48,0,0,1,542.67,1371.51Zm148.45,28.36h74.36v-28.36H709.64A90.48,90.48,0,0,1,691.12,1399.87ZM796.21,0V1514.31l363.43-114.44V114.45Z"/></g></g></svg>