<svg xmlns="http://www.w3.org/2000/svg" viewBox="0 0 1781.91 1500"><title>kick</title><g id="Layer_2" data-name="Layer 2"><g id="Layer_1-2" data-name="Layer 1"><path d="M664.16,276.9a144.11,144.11,0,0,1-1.53,26.58,165.83,165.83,0,0,1-18.08,54C635.7,374,623.43,388.62,609.41,401a157.54,157.54,0,0,1-47.88,28.78,154.77,154.77,0,0,1-26.45,7.48,177.2,177.2,0,0,1-28.46,2.94c-1.1.05-2.23.05-3.33.05a159.38,159.38,0,0,1-52.81-9.55,153.64,153.64,0,0,1-47.11-26.8,159,159,0,0,1-20.63-20.39,176.69,176.69,0,0,1-16.25-23.27c-.62-1-1.21-2.1-1.8-3.17a9.8,9.8,0,0,1-.78-1.16s0,0-.06,0c-.08-.22-.19-.43-.29-.65s-.43-.75-.62-1.15a8,8,0,0,1-.38-.78,163,163,0,0,1-8.34-19.51A167.28,167.28,0,0,1,349.11,316c-.35-1.37-.62-2.72-.94-4.06-1-5-1.78-10.15-2.32-15.23a.65.65,0,0,0,0-.19c0-.46-.08-.91-.14-1.37s0-.89,0-1.35a169,169,0,0,1,1.48-38c5.21-35.14,23.29-68.49,49.52-92.36A159.39,159.39,0,0,1,442.11,134a163.45,163.45,0,0,1,53.94-12.53c38-2.21,76.29,10,106.37,33.22a162.56,162.56,0,0,1,20.77,19.37,174.09,174.09,0,0,1,17.27,23,143.53,143.53,0,0,1,12.29,24.38,164.57,164.57,0,0,1,8.1,26.9A162.79,162.79,0,0,1,664.16,276.9Zm994.62,94.56a79.65,79.65,0,0,0-7.64-3.71,95.86,95.86,0,0,0-57.81-5.38c-3,.67-6,1.5-8.93,2.44-10.6,1.37-21.23,2.72-31.83,4-42.8,5.35-85.54,10.87-128.32,16.25q-65.41,8.26-130.8,16.52-31.64,4-63.24,8l-30.91,3.91c-5.3.64-10.63,1.23-15.9,2a.47.47,0,0,1-.16,0h-.11l-.89.16a1.76,1.76,0,0,0-.38.06,9.48,9.48,0,0,0-1.77.51,10.51,10.51,0,0,0-7.94,4.55c-.13.18-.27.4-.43.59a3.21,3.21,0,0,0-.29.46c-15.26,21.49-30.7,42.85-46,64.29q-36.23,50.73-72.52,101.37-18.24,25.5-36.51,51l-17.84,24.92c-.94,1.31-1.88,2.66-2.82,4L992,662q-10.62-15.33-21.23-30.61Q936.83,582.49,903,533.6q-17.24-24.86-34.43-49.72l-16.79-24.21c-1.4-2-2.77-4-4.14-6q37.92-18.88,76-37.63c32.39-16,64.64-32.23,97.14-48a.91.91,0,0,1,.13-.08,9.81,9.81,0,0,0,1.67-1.05,10.58,10.58,0,0,0,4.41-2.91c.27-.32.52-.64.76-1,19-24.42,38.17-48.72,57.27-73.06q38.51-49.08,77-98.17c18.35-23.35,36.56-46.78,55-70.1.78-.73,1.53-1.46,2.29-2.24a71.57,71.57,0,0,0,15.68-23.89,72.31,72.31,0,0,0,4.79-23,70.17,70.17,0,0,0-20.58-52.21,70,70,0,0,0-94.56-3.72c-1.13,1-2.21,1.94-3.26,3a9.67,9.67,0,0,0-.75.67,73.08,73.08,0,0,0-9,11.14.79.79,0,0,0-.19.22,2.23,2.23,0,0,1-.19.32c-1.07,1.64-2.07,3.34-3,5.06h0a1.94,1.94,0,0,0-.27.48l-.22.38c-4.22,5.24-8.44,10.52-12.67,15.79q-38.54,47.94-77.12,95.88-34.52,42.76-68.93,85.6a9.08,9.08,0,0,0-1.07,1.67c-7.62,4-15.2,8-22.82,12.05Q870.69,277.46,816.34,306q-54.51,28.74-109,57.44c-30.53,16-60.91,32.25-91.47,48.13a10.32,10.32,0,0,0-5.13,2.39q-26.84,23.2-53.81,46.3-47,40.47-94,80.89-46.6,40.16-93.24,80.28-23.93,20.53-47.8,41.1c-9.29-.61-18.59-1.1-27.88-1.64q-59-3.54-118.1-7-30.18-1.78-60.36-3.61c-8.29-.48-16.58-1-24.86-1.48a68.62,68.62,0,0,0-14.47-2.9,70.48,70.48,0,0,0-51.6,16.33c-1.11,1-2.21,1.93-3.26,2.95a9,9,0,0,0-.72.65,72.67,72.67,0,0,0-9,11.14,1.77,1.77,0,0,0-.17.24l-.21.3c-1.08,1.66-2.07,3.33-3,5h0c-.11.16-.19.35-.27.49s-.24.43-.33.59l0,0a9.37,9.37,0,0,0-.38.86A66.7,66.7,0,0,0,.59,705.93a72,72,0,0,0,5.46,38.15,70.89,70.89,0,0,0,25,29.64,67.63,67.63,0,0,0,15,7.59,9.57,9.57,0,0,0,2.9,1.1c.27.06.54.08.81.14a3.29,3.29,0,0,1,.54.05c.08,0,.13,0,.21,0h.08a6.45,6.45,0,0,0,1,.08c2.34.22,4.68.59,7,.89l10.23,1.21,4.57.56c11.08,1.32,22.19,2.64,33.25,4q62.91,7.68,125.82,15.18,31.89,3.83,63.79,7.72,15.25,1.82,30.5,3.68l14.75,1.78c3.14.4,6.32.89,9.52,1.16a1.37,1.37,0,0,0,.3,0,7.54,7.54,0,0,0,.83.06,9.74,9.74,0,0,0,2.64-.38,1.54,1.54,0,0,0,.37,0,9.62,9.62,0,0,0,6.19-2.18c12.72-10.57,25.31-21.23,38-31.85q45.6-38.34,91.3-76.59c16.9-14.15,34-28.17,50.74-42.48,2.07,2.74,4.12,5.51,6.21,8.26q16.11,20.9,32.18,41.77,37.32,48.51,74.62,97,37,48,73.88,96,18.48,24.06,37,48.08,9.24,12,18.45,24c2.94,3.85,6,7.59,8.83,11.52l0,0a10.38,10.38,0,0,0,5,5.06,9.67,9.67,0,0,0,1.56.59.09.09,0,0,1,.08,0c.06,0,.08,0,.11,0a.22.22,0,0,1,.11,0c3.47.81,6.88,1.83,10.3,2.75,31.77,8.5,63.54,16.89,95.31,25.42q59.16,15.86,118.4,31.58,30.63,8.16,61.26,16.36l28.32,7.56c5.33,1.42,10.68,2.8,16,4.2,2.34,15.33,4.44,30.75,6.67,46.11q4.41,30.25,8.77,60.55,8.71,60.33,17.44,120.71c4.19,29.08,8.55,58.14,12.69,87.25a94.35,94.35,0,0,0,12.32,51.59,95.5,95.5,0,0,0,38.21,37,10.28,10.28,0,0,0,1.07.62c.32.18.67.34,1,.53a7.94,7.94,0,0,0,.89.38,96.63,96.63,0,0,0,14.18,5.52,1.6,1.6,0,0,1,.26.08l.84.24c.13,0,.27.08.43.11a4.82,4.82,0,0,0,.73.21c.13,0,.29.08.43.14a6.76,6.76,0,0,0,.86.21,1.48,1.48,0,0,1,.24,0c.35.08.67.19,1,.27a92.61,92.61,0,0,0,18.56,2.59c1.13,0,2.23,0,3.34,0a97.54,97.54,0,0,0,39.3-8.31,96.3,96.3,0,0,0,34-25.72,93.88,93.88,0,0,0,21.36-49,96.1,96.1,0,0,0-4.11-41.65v0q-4.56-36.29-9.12-72.56-7.79-62.94-15.69-125.84-8-64.17-16-128.33-3.91-31.27-7.8-62.54-1.86-15.06-3.71-30.08c-.68-5.25-1.46-10.49-2-15.77a9.27,9.27,0,0,0-1.34-4,2.24,2.24,0,0,0-.27-.45,11.23,11.23,0,0,0-6.7-5.49c-.62-.19-1.24-.35-1.88-.54-31.53-9.5-63.17-18.67-94.78-28-32.58-9.63-65.21-19.1-97.71-28.86,1.48-2.18,3-4.36,4.44-6.54q25-37.05,50-74.06,35.22-52.05,70.4-104.22,17-25,33.95-50.2c7.75-11.46,15.68-22.84,23.3-34.41,2.85-.45,5.7-1,8.52-1.45,7.35-1.21,14.72-2.39,22.06-3.58q62.27-10,124.53-20,62-9.93,124-20,26.35-4.23,52.7-8.45h0a94.88,94.88,0,0,0,70.22-34,94.14,94.14,0,0,0,21.36-49,96.71,96.71,0,0,0-8-51.82A94.73,94.73,0,0,0,1658.78,371.46Zm-211.64,1045.1a32.86,32.86,0,0,0,21.33-8c31.26-27.82,63.49-54.59,95.23-81.84l44.1-37.79c6.89-5.91,13.68-12,20.72-17.82.36-.28.72-.58,1.07-.88l.12-.09a.53.53,0,0,0,.12-.1h0l0,0c12.4-11.51,13.47-31.39,2-44a31.39,31.39,0,0,0-44-2l0,0a.45.45,0,0,0-.13.1c-.51.43-1,.88-1.47,1.34-6.65,6-13.64,11.65-20.43,17.46q-22,19-44,37.86-30.87,26.46-61.71,52.94c-11.19,9.6-22.57,19-33.6,28.78-12.67,11.28-13.29,31.61-2,44A30.4,30.4,0,0,0,1447.14,1416.56Zm93.95,13a28.52,28.52,0,0,0,11.35-2.33c10.33-4.47,21.09-8,31.58-12.08q33.82-12.91,67.66-25.8c28-10.69,55.93-21.81,84.11-32.13.71-.21,1.41-.45,2.11-.72l2.29-.88c16-5.79,23.38-25.21,17.22-40.52a31.4,31.4,0,0,0-16.33-16.84c-8-3.5-16.12-3.07-24.19-.38-.78.25-1.53.6-2.28.86-.54.21-1.06.42-1.57.65-28.11,11-56.43,21.53-84.63,32.28q-33.86,12.91-67.66,25.8c-10.49,4-21.3,7.56-31.61,12-15.57,6.72-23.67,24.48-17.21,40.51A31.87,31.87,0,0,0,1541.09,1429.52Zm-72.29,67.11c3.21,0,6.41-.13,9.58-.21q80.55-1.79,161.06-3.31,34.95-.73,69.92-1.43c13.26-.28,26.58-.84,39.87-.84.72,0,1.45.05,2.18,0a3.1,3.1,0,0,1,.43,0c9.23.06,17.49-4.63,23-11.55a31,31,0,0,0,7.05-20.63c0-.79-.09-1.58-.18-2.36a31.52,31.52,0,0,0-9.37-19,31.67,31.67,0,0,0-22.65-8.67h-.43c-.59,0-1.18.05-1.76.09-3.39.12-6.8.12-10.21.18q-65.54,1.45-131.12,2.69-42.5.89-85,1.72c-18.15.38-36.31,1.08-54.47,1.08-17,0-30.64,15.68-30,32.2C1437.22,1483.93,1451.85,1496.63,1468.8,1496.63Z" style="fill:#282828"/></g></g></svg>