<?xml version="1.0" encoding="UTF-8"?>
<svg id="Layer_1" data-name="Layer 1" xmlns="http://www.w3.org/2000/svg" viewBox="0 0 512 512">
  <defs>
    <style>
      .cls-1 {
        fill: #00a9ce;
        stroke-width: 0px;
      }
    </style>
  </defs>
  <path class="cls-1" d="m505.65,202.58c-4.23-14.78-10.23-28.58-18-41.4-7.76-12.82-17.02-24.54-27.76-35.21-10.74-10.63-22.66-19.76-35.72-27.33-13.1-7.57-27.09-13.45-41.95-17.6-14.9-4.16-30.31-6.23-46.19-6.23H34.99c-4.16,0-8,.74-11.49,2.2-3.53,1.41-6.59,3.45-9.21,6.08-2.63,2.63-4.7,5.69-6.23,9.21-1.53,3.49-2.31,7.33-2.31,11.49v239.68c-.2,12.55-.9,25.05-2.08,37.56L.09,418.89c-.08.63-.12,1.29-.08,1.96.27,5.18,2.82,9.92,7.02,12.98.2.16.39.27.59.43,4.78,3.22,10.82,3.84,16.19,1.65l24.9-6.67c19.45-5.18,39.52-7.8,59.68-7.8l-.12-.12h227.76c15.88,0,31.29-2.08,46.19-6.23,14.86-4.16,28.86-9.96,41.95-17.45,13.06-7.49,24.98-16.47,35.72-26.94,10.74-10.47,20-22.11,27.76-34.93,7.76-12.82,13.76-26.58,18-41.29,4.23-14.7,6.35-29.99,6.35-45.87s-2.12-31.21-6.35-46.03Zm-61.44,89.59c-6.08,13.72-14.31,25.8-24.78,36.15-10.47,10.39-22.74,18.7-36.82,24.9-14.08,6.23-29.13,9.37-45.21,9.37H64.51v-229.02h272.89c15.88,0,30.86,3.18,44.93,9.61,14.08,6.39,26.39,14.94,36.93,25.56,10.59,10.66,18.86,22.94,24.94,36.82,6.04,13.92,9.06,28.43,9.06,43.6s-3.02,29.33-9.06,43.01Z"/>
  <g>
    <path class="cls-1" d="m368.52,260.54c-8.25,0-14.94-6.69-14.94-14.94,0-14.43-11.74-26.17-26.17-26.17s-26.17,11.74-26.17,26.17c0,8.25-6.69,14.94-14.94,14.94s-14.94-6.69-14.94-14.94c0-30.9,25.14-56.04,56.04-56.04s56.04,25.14,56.04,56.04c0,8.25-6.69,14.94-14.94,14.94Z"/>
    <path class="cls-1" d="m209.33,260.54c-8.25,0-14.94-6.69-14.94-14.94,0-14.43-11.74-26.17-26.17-26.17s-26.17,11.74-26.17,26.17c0,8.25-6.69,14.94-14.94,14.94s-14.94-6.69-14.94-14.94c0-30.9,25.14-56.04,56.04-56.04s56.04,25.14,56.04,56.04c0,8.25-6.69,14.94-14.94,14.94Z"/>
  </g>
</svg>