<?xml version="1.0" encoding="UTF-8"?>
<svg id="Layer_1" data-name="Layer 1" xmlns="http://www.w3.org/2000/svg" viewBox="0 0 512 512">
  <defs>
    <style>
      .cls-1 {
        fill: #6137ad;
        stroke-width: 0px;
      }
    </style>
  </defs>
  <g>
    <path class="cls-1" d="m92.21,204.84H30.9c-15.81,0-28.63,12.82-28.63,28.63v33.99c0,5.98-.28,11.96-.85,17.91l-1.39,14.69c-.02.25-.04.51-.03.76.1,2.01,1.1,3.85,2.72,5.04.08.06.15.11.23.16,1.86,1.25,4.21,1.49,6.29.64l9.65-2.58c7.55-2.02,15.33-3.04,23.15-3.04h50.18c15.81,0,28.63-12.82,28.63-28.63v-38.95c0-15.81-12.82-28.63-28.63-28.63Zm16.66,67.57c0,9.2-7.46,16.66-16.66,16.66H30.9c-9.2,0-16.66-7.46-16.66-16.66v-38.95c0-9.2,7.46-16.66,16.66-16.66h61.31c9.2,0,16.66,7.46,16.66,16.66v38.95Z"/>
    <path class="cls-1" d="m92.01,256.39c-2.09,0-3.78-1.69-3.78-3.78,0-3.65-2.97-6.62-6.62-6.62s-6.62,2.97-6.62,6.62c0,2.09-1.69,3.78-3.78,3.78s-3.78-1.69-3.78-3.78c0-7.81,6.36-14.17,14.17-14.17s14.17,6.36,14.17,14.17c0,2.09-1.69,3.78-3.78,3.78Z"/>
    <path class="cls-1" d="m51.75,256.39c-2.09,0-3.78-1.69-3.78-3.78,0-3.65-2.97-6.62-6.62-6.62s-6.62,2.97-6.62,6.62c0,2.09-1.69,3.78-3.78,3.78s-3.78-1.69-3.78-3.78c0-7.81,6.36-14.17,14.17-14.17s14.17,6.36,14.17,14.17c0,2.09-1.69,3.78-3.78,3.78Z"/>
  </g>
  <g>
    <path class="cls-1" d="m157.52,288.68c-.86,0-1.65-.16-2.38-.48-.73-.32-1.36-.74-1.9-1.26-.54-.52-.97-1.15-1.29-1.88-.32-.73-.48-1.52-.48-2.38v-59.67c0-.86.16-1.65.48-2.38.32-.73.75-1.36,1.29-1.9.54-.54,1.18-.96,1.9-1.26.73-.3,1.52-.45,2.38-.45h19.65c3.28,0,6.46.43,9.54,1.29,3.08.86,5.97,2.07,8.68,3.64s5.17,3.45,7.39,5.65c2.22,2.2,4.13,4.63,5.74,7.28,1.6,2.65,2.84,5.5,3.72,8.56.88,3.06,1.32,6.23,1.32,9.52s-.44,6.45-1.32,9.49c-.88,3.04-2.12,5.89-3.72,8.54-1.6,2.65-3.52,5.06-5.74,7.22-2.22,2.16-4.68,4.02-7.39,5.57-2.71,1.55-5.6,2.75-8.68,3.61-3.08.86-6.26,1.29-9.54,1.29h-19.65Zm6.1-59.5v47.35h13.83c3.32,0,6.44-.64,9.35-1.93,2.91-1.29,5.45-3,7.61-5.15,2.16-2.15,3.87-4.64,5.12-7.47,1.25-2.84,1.88-5.8,1.88-8.9s-.63-6.14-1.88-9.01c-1.25-2.87-2.97-5.41-5.15-7.61-2.18-2.2-4.73-3.96-7.64-5.29-2.91-1.32-6.01-1.99-9.29-1.99h-13.83Z"/>
    <path class="cls-1" d="m218.98,242.5c0-1.79.34-3.24,1.04-4.34.69-1.1,1.91-1.65,3.67-1.65,1.53,0,2.76.58,3.69,1.74.93,1.16,1.7,2.59,2.29,4.31l.39,2.13c1.87-2.46,4.11-4.41,6.75-5.85,2.63-1.44,5.7-2.17,9.21-2.21h.28c2.02,0,3.57.57,4.67,1.71,1.1,1.14,1.65,2.58,1.65,4.34,0,.86-.17,1.66-.5,2.41-.34.75-.79,1.39-1.37,1.93-.58.54-1.25.97-2.01,1.29-.77.32-1.58.48-2.44.48h-.28c-2.09.04-4.03.48-5.82,1.32s-3.34,1.97-4.65,3.39c-1.31,1.42-2.35,3.07-3.13,4.95-.78,1.88-1.21,3.89-1.29,6.02v18.02c0,1.72-.55,3.18-1.65,4.39-1.1,1.21-2.53,1.82-4.28,1.82-.86,0-1.67-.17-2.43-.5-.77-.34-1.43-.78-1.99-1.34s-1-1.21-1.32-1.96c-.32-.75-.48-1.55-.48-2.41v-39.97Z"/>
    <path class="cls-1" d="m306.86,282.75c0,1.75-.35,3.18-1.06,4.28-.71,1.1-1.94,1.65-3.69,1.65-.75,0-1.38-.13-1.9-.39-.52-.26-.96-.58-1.32-.95-.35-.37-.62-.74-.81-1.09-.19-.35-.32-.64-.39-.87l-.9-3.02c-2.39,2.2-5.11,3.92-8.17,5.15-3.06,1.23-6.31,1.85-9.74,1.85-3.69,0-7.16-.7-10.41-2.1-3.25-1.4-6.07-3.31-8.48-5.74-2.41-2.43-4.3-5.26-5.68-8.51-1.38-3.25-2.07-6.7-2.07-10.36s.69-7.16,2.07-10.41c1.38-3.25,3.27-6.07,5.68-8.48,2.41-2.41,5.23-4.31,8.48-5.71,3.25-1.4,6.72-2.1,10.41-2.1,2.95,0,5.76.46,8.42,1.37,2.67.91,5.12,2.21,7.36,3.89l.06-18.47c0-1.72.54-3.18,1.62-4.39,1.08-1.21,2.52-1.82,4.31-1.82.86,0,1.67.17,2.44.5.76.34,1.43.78,1.99,1.34s1,1.21,1.32,1.96c.32.75.48,1.55.48,2.41v60Zm-13.43-20.09c0-2.01-.38-3.91-1.15-5.68-.77-1.77-1.81-3.31-3.13-4.62-1.33-1.31-2.87-2.34-4.65-3.11-1.77-.76-3.65-1.15-5.63-1.15s-3.91.38-5.68,1.15c-1.77.77-3.31,1.8-4.62,3.11-1.31,1.31-2.33,2.85-3.08,4.62-.75,1.77-1.12,3.67-1.12,5.68s.37,3.85,1.12,5.63c.75,1.77,1.77,3.32,3.08,4.65,1.31,1.32,2.85,2.37,4.62,3.13,1.77.77,3.67,1.15,5.68,1.15s3.9-.38,5.65-1.15c1.75-.76,3.29-1.81,4.62-3.13,1.32-1.32,2.37-2.87,3.13-4.65.76-1.77,1.15-3.65,1.15-5.63Z"/>
    <path class="cls-1" d="m324.1,262.65s.02.06.06.06c0,1.75.35,3.48,1.06,5.18.71,1.7,1.69,3.23,2.94,4.59,1.25,1.36,2.71,2.47,4.39,3.33,1.68.86,3.49,1.31,5.43,1.34,1.79.08,3.5-.16,5.12-.7,1.62-.54,3.24-1.46,4.84-2.77.6-.48,1.26-.96,1.99-1.43.73-.47,1.49-.79,2.3-.98.8-.19,1.65-.18,2.55.03.9.21,1.85.74,2.85,1.6.67.56,1.17,1.22,1.48,1.99.32.77.47,1.57.45,2.41-.02.84-.22,1.68-.59,2.52s-.91,1.61-1.62,2.32c-2.31,2.35-5.07,4.14-8.26,5.37-3.19,1.23-6.54,1.85-10.05,1.85-3.73,0-7.24-.68-10.52-2.04-3.28-1.36-6.15-3.24-8.59-5.63-2.44-2.39-4.38-5.2-5.79-8.42-1.42-3.23-2.13-6.71-2.13-10.44l.06-.06-.06-.06c0-3.73.71-7.23,2.13-10.49,1.42-3.27,3.35-6.1,5.79-8.51,2.44-2.41,5.31-4.3,8.59-5.68,3.28-1.38,6.79-2.07,10.52-2.07s6.9.59,10.08,1.76c3.17,1.18,5.91,2.94,8.23,5.29.71.75,1.25,1.53,1.62,2.35.37.82.57,1.65.59,2.49.02.84-.13,1.64-.45,2.41-.32.77-.81,1.45-1.48,2.04-1.01.86-1.96,1.39-2.85,1.6-.9.21-1.74.21-2.55,0-.8-.2-1.57-.54-2.3-1.01-.73-.47-1.39-.94-1.99-1.43-1.61-1.31-3.22-2.21-4.84-2.71s-3.33-.72-5.12-.64c-1.9.08-3.69.53-5.37,1.37s-3.14,1.94-4.39,3.3c-1.25,1.36-2.24,2.89-2.97,4.59-.73,1.7-1.09,3.44-1.09,5.23l-.06.06Z"/>
    <path class="cls-1" d="m416.09,285.1c-.32.71-.75,1.33-1.29,1.88-.54.54-1.19.96-1.93,1.26-.75.3-1.53.45-2.35.45s-1.65-.15-2.38-.45c-.73-.3-1.37-.72-1.93-1.26-.56-.54-1-1.17-1.32-1.88-.32-.71-.48-1.49-.48-2.35v-21.02c0-.13.02-.25.06-.36-.08-1.87-.42-3.6-1.04-5.21-.62-1.6-1.47-3-2.57-4.2-1.1-1.19-2.42-2.14-3.95-2.83-1.53-.69-3.23-1.04-5.09-1.04s-3.67.45-5.29,1.34c-1.62.9-3.04,2.08-4.25,3.55-1.21,1.47-2.16,3.14-2.85,5.01-.69,1.87-1.04,3.75-1.04,5.65v18.98c0,.86-.16,1.65-.48,2.38-.32.73-.75,1.36-1.29,1.9-.54.54-1.19.97-1.93,1.29-.75.32-1.53.48-2.35.48s-1.65-.16-2.38-.48c-.73-.32-1.37-.75-1.93-1.29-.56-.54-1-1.18-1.32-1.9-.32-.73-.48-1.52-.48-2.38v-59.95c0-.86.16-1.66.48-2.41.32-.75.76-1.4,1.32-1.96s1.21-1,1.96-1.32c.75-.32,1.53-.48,2.35-.48s1.6.16,2.35.48c.75.32,1.39.76,1.93,1.32.54.56.97,1.21,1.29,1.96.32.75.48,1.55.48,2.41v21.55c1.94-2.5,4.23-4.51,6.88-6.02,2.65-1.51,5.62-2.27,8.9-2.27,3.55,0,6.71.68,9.49,2.04,2.78,1.36,5.12,3.21,7.02,5.54,1.9,2.33,3.36,5.07,4.37,8.2,1.01,3.13,1.51,6.47,1.51,10.02v20.99c0,.86-.16,1.64-.48,2.35Z"/>
    <path class="cls-1" d="m421.6,262.65c0-3.69.7-7.16,2.1-10.38,1.4-3.23,3.31-6.05,5.74-8.48,2.43-2.43,5.26-4.34,8.51-5.74,3.25-1.4,6.7-2.1,10.35-2.1,3.17,0,6.18.52,9.04,1.57,2.85,1.05,5.46,2.48,7.81,4.31.63-1.57,1.35-2.85,2.16-3.83.8-.99,1.91-1.48,3.33-1.48,1.75,0,2.99.55,3.69,1.65.71,1.1,1.06,2.55,1.06,4.34v39.97c0,.86-.16,1.66-.48,2.41-.32.75-.76,1.4-1.32,1.96s-1.22,1.01-1.99,1.34c-.77.34-1.58.5-2.44.5-1.53,0-2.8-.45-3.81-1.34-1.01-.9-1.66-2.01-1.96-3.36-2.2,1.64-4.57,2.95-7.11,3.92-2.54.97-5.21,1.46-8,1.46-3.66,0-7.11-.7-10.35-2.1-3.25-1.4-6.08-3.31-8.51-5.74-2.43-2.43-4.34-5.26-5.74-8.51-1.4-3.25-2.1-6.7-2.1-10.36Zm12.15,0c0,1.98.38,3.85,1.15,5.63.76,1.77,1.81,3.32,3.14,4.65,1.32,1.32,2.86,2.37,4.62,3.13,1.75.77,3.64,1.15,5.65,1.15s3.9-.38,5.65-1.15c1.75-.76,3.28-1.81,4.59-3.13,1.31-1.32,2.33-2.87,3.08-4.65.75-1.77,1.12-3.65,1.12-5.63s-.37-3.91-1.12-5.68c-.75-1.77-1.77-3.31-3.08-4.62-1.31-1.31-2.84-2.34-4.59-3.11-1.75-.76-3.64-1.15-5.65-1.15s-3.9.38-5.65,1.15c-1.75.77-3.29,1.8-4.62,3.11-1.33,1.31-2.37,2.85-3.14,4.62-.76,1.77-1.15,3.67-1.15,5.68Z"/>
    <path class="cls-1" d="m500.13,236.51h5.77c.86,0,1.66.16,2.41.48.75.32,1.39.75,1.93,1.29.54.54.97,1.19,1.29,1.93.32.75.48,1.53.48,2.35s-.16,1.66-.48,2.41c-.32.75-.75,1.39-1.29,1.93-.54.54-1.19.97-1.93,1.29-.75.32-1.55.48-2.41.48h-5.77v33.86c0,.86-.16,1.66-.48,2.41-.32.75-.76,1.4-1.32,1.96s-1.2,1-1.93,1.32c-.73.32-1.5.48-2.32.48s-1.65-.16-2.38-.48c-.73-.32-1.37-.76-1.93-1.32s-1-1.21-1.32-1.96c-.32-.75-.48-1.55-.48-2.41v-33.86h-3.58c-.86,0-1.66-.16-2.41-.48-.75-.32-1.39-.76-1.93-1.32-.54-.56-.97-1.21-1.29-1.96-.32-.75-.48-1.53-.48-2.35s.16-1.6.48-2.35c.32-.75.75-1.39,1.29-1.93.54-.54,1.18-.97,1.93-1.29.75-.32,1.55-.48,2.41-.48h3.58v-9.57c0-.86.16-1.65.48-2.38.32-.73.76-1.36,1.32-1.9.56-.54,1.22-.97,1.99-1.29.76-.32,1.58-.48,2.43-.48s1.6.16,2.32.48c.73.32,1.35.75,1.88,1.29.52.54.94,1.18,1.26,1.9.32.73.48,1.52.48,2.38v9.57Z"/>
  </g>
</svg>