<?xml version="1.0" encoding="UTF-8"?>
<svg id="Layer_1" data-name="Layer 1" xmlns="http://www.w3.org/2000/svg" viewBox="0 0 1024 204.64">
  <defs>
    <style>
      .cls-1 {
        fill: #6137ad;
        stroke-width: 0px;
      }
    </style>
  </defs>
  <g>
    <path class="cls-1" d="m286.76,72.77c0-4.51.87-8.14,2.61-10.91,1.73-2.77,4.81-4.15,9.22-4.15,3.85,0,6.95,1.46,9.29,4.37,2.34,2.91,4.27,6.53,5.77,10.84l.99,5.35c4.69-6.2,10.35-11.1,16.97-14.72,6.62-3.61,14.34-5.47,23.17-5.56h.7c5.07,0,8.99,1.43,11.76,4.3,2.77,2.86,4.15,6.5,4.15,10.91,0,2.16-.42,4.18-1.27,6.06-.84,1.88-2,3.5-3.45,4.86-1.46,1.36-3.15,2.44-5.07,3.24-1.93.8-3.97,1.2-6.13,1.2h-.7c-5.26.09-10.14,1.2-14.65,3.31-4.51,2.11-8.4,4.95-11.69,8.52-3.29,3.57-5.91,7.72-7.89,12.46-1.97,4.74-3.05,9.79-3.24,15.14v45.35c0,4.32-1.39,8-4.16,11.05-2.77,3.05-6.36,4.58-10.77,4.58-2.16,0-4.2-.42-6.13-1.27-1.93-.84-3.59-1.97-5-3.38-1.41-1.41-2.51-3.05-3.31-4.93-.8-1.88-1.2-3.9-1.2-6.06v-100.55Z"/>
    <path class="cls-1" d="m507.86,174.02c0,4.41-.89,8-2.68,10.77-1.78,2.77-4.88,4.15-9.29,4.15-1.88,0-3.48-.33-4.79-.99-1.32-.66-2.42-1.45-3.31-2.39-.89-.94-1.57-1.85-2.04-2.75-.47-.89-.8-1.62-.99-2.18l-2.25-7.6c-6.01,5.54-12.86,9.86-20.56,12.96-7.7,3.1-15.87,4.65-24.5,4.65-9.29,0-18.02-1.76-26.19-5.28-8.17-3.52-15.28-8.33-21.34-14.43-6.06-6.1-10.82-13.24-14.29-21.41-3.47-8.17-5.21-16.85-5.21-26.05s1.74-18.03,5.21-26.19c3.47-8.17,8.24-15.28,14.29-21.34,6.06-6.06,13.17-10.84,21.34-14.36,8.17-3.52,16.9-5.28,26.19-5.28,7.42,0,14.48,1.15,21.19,3.45,6.71,2.3,12.89,5.56,18.52,9.79l.14-46.47c0-4.32,1.36-8,4.09-11.06,2.72-3.05,6.34-4.58,10.84-4.58,2.16,0,4.2.42,6.13,1.27,1.92.84,3.59,1.97,5,3.38,1.41,1.41,2.51,3.05,3.31,4.93.8,1.88,1.2,3.9,1.2,6.06v150.97Zm-33.8-50.56c0-5.07-.96-9.83-2.89-14.29-1.93-4.46-4.56-8.33-7.89-11.62-3.33-3.28-7.23-5.89-11.69-7.82-4.46-1.92-9.18-2.89-14.15-2.89s-9.84.96-14.29,2.89c-4.46,1.93-8.33,4.53-11.62,7.82-3.29,3.29-5.87,7.16-7.74,11.62-1.88,4.46-2.82,9.22-2.82,14.29s.94,9.69,2.82,14.15c1.88,4.46,4.46,8.36,7.74,11.69,3.29,3.33,7.16,5.96,11.62,7.89,4.46,1.93,9.22,2.89,14.29,2.89s9.81-.96,14.22-2.89c4.41-1.92,8.28-4.55,11.62-7.89,3.33-3.33,5.96-7.23,7.89-11.69,1.92-4.46,2.89-9.18,2.89-14.15Z"/>
    <path class="cls-1" d="m551.24,123.47c0,.09.05.14.14.14,0,4.41.89,8.76,2.68,13.03,1.78,4.27,4.25,8.12,7.39,11.55,3.15,3.43,6.83,6.22,11.06,8.38,4.22,2.16,8.78,3.29,13.66,3.38,4.51.19,8.8-.4,12.89-1.76,4.08-1.36,8.14-3.68,12.18-6.97,1.5-1.22,3.17-2.42,5-3.59,1.83-1.17,3.75-1.99,5.77-2.46,2.02-.47,4.16-.45,6.41.07,2.25.52,4.65,1.86,7.18,4.01,1.69,1.41,2.93,3.08,3.73,5,.8,1.93,1.17,3.94,1.13,6.06-.05,2.11-.54,4.22-1.48,6.34-.94,2.11-2.3,4.06-4.08,5.84-5.82,5.92-12.74,10.42-20.77,13.52-8.03,3.1-16.46,4.65-25.28,4.65-9.39,0-18.21-1.71-26.47-5.14-8.26-3.43-15.47-8.14-21.62-14.15-6.15-6.01-11.01-13.07-14.57-21.2-3.57-8.12-5.35-16.87-5.35-26.26l.14-.14-.14-.14c0-9.39,1.78-18.19,5.35-26.4,3.57-8.21,8.43-15.35,14.57-21.41,6.15-6.06,13.36-10.82,21.62-14.29,8.26-3.47,17.09-5.21,26.47-5.21s17.37,1.48,25.35,4.44c7.98,2.96,14.88,7.39,20.7,13.31,1.78,1.88,3.15,3.85,4.08,5.91.94,2.07,1.43,4.16,1.48,6.27.05,2.11-.33,4.13-1.13,6.06-.8,1.93-2.04,3.64-3.73,5.14-2.54,2.16-4.93,3.5-7.18,4.01-2.25.52-4.39.52-6.41,0-2.02-.51-3.94-1.36-5.77-2.53-1.83-1.17-3.5-2.37-5-3.59-4.04-3.29-8.1-5.56-12.18-6.83-4.08-1.27-8.38-1.81-12.89-1.62-4.79.19-9.29,1.34-13.52,3.45-4.22,2.11-7.91,4.88-11.06,8.31-3.15,3.43-5.63,7.28-7.46,11.55-1.83,4.27-2.75,8.66-2.75,13.17l-.14.14Z"/>
    <path class="cls-1" d="m782.69,179.94c-.8,1.78-1.88,3.36-3.24,4.72-1.36,1.36-2.98,2.42-4.86,3.17-1.88.75-3.85,1.13-5.91,1.13s-4.16-.37-5.99-1.13c-1.83-.75-3.45-1.81-4.86-3.17-1.41-1.36-2.51-2.93-3.31-4.72-.8-1.78-1.2-3.75-1.2-5.91v-52.88c0-.33.05-.63.14-.92-.19-4.69-1.06-9.06-2.61-13.1-1.55-4.04-3.71-7.56-6.48-10.56-2.77-3-6.08-5.37-9.93-7.11-3.85-1.74-8.12-2.61-12.82-2.61s-9.22,1.13-13.31,3.38c-4.09,2.25-7.65,5.23-10.7,8.94-3.05,3.71-5.45,7.91-7.18,12.6-1.74,4.7-2.61,9.44-2.61,14.22v47.74c0,2.16-.4,4.15-1.2,5.98-.8,1.83-1.88,3.43-3.24,4.79-1.36,1.36-2.98,2.44-4.86,3.24-1.88.8-3.85,1.2-5.92,1.2s-4.15-.4-5.99-1.2c-1.83-.8-3.45-1.88-4.86-3.24-1.41-1.36-2.51-2.96-3.31-4.79-.8-1.83-1.2-3.82-1.2-5.98V22.91c0-2.16.4-4.18,1.2-6.06.8-1.88,1.9-3.52,3.31-4.93s3.05-2.51,4.93-3.31c1.88-.8,3.85-1.2,5.91-1.2s4.04.4,5.92,1.2c1.88.8,3.5,1.9,4.86,3.31,1.36,1.41,2.44,3.05,3.24,4.93.8,1.88,1.2,3.9,1.2,6.06v54.22c4.88-6.29,10.65-11.34,17.32-15.14,6.66-3.8,14.13-5.7,22.39-5.7,8.92,0,16.88,1.71,23.87,5.14,6.99,3.43,12.89,8.08,17.67,13.94,4.79,5.87,8.45,12.75,10.98,20.63,2.54,7.89,3.8,16.29,3.8,25.21v52.81c0,2.16-.4,4.13-1.2,5.91Z"/>
    <path class="cls-1" d="m796.56,123.47c0-9.29,1.76-18,5.28-26.12,3.52-8.12,8.33-15.23,14.44-21.34,6.1-6.1,13.24-10.91,21.41-14.43,8.17-3.52,16.85-5.28,26.05-5.28,7.98,0,15.56,1.32,22.74,3.94,7.18,2.63,13.73,6.25,19.65,10.84,1.6-3.94,3.4-7.16,5.42-9.65,2.02-2.49,4.81-3.73,8.38-3.73,4.41,0,7.51,1.39,9.3,4.15,1.78,2.77,2.68,6.41,2.68,10.91v100.55c0,2.16-.4,4.18-1.2,6.06-.8,1.88-1.9,3.52-3.31,4.93s-3.08,2.53-5,3.38c-1.93.85-3.97,1.27-6.13,1.27-3.85,0-7.04-1.13-9.58-3.38-2.54-2.25-4.18-5.07-4.93-8.45-5.54,4.13-11.5,7.42-17.89,9.86-6.39,2.44-13.1,3.66-20.14,3.66-9.2,0-17.89-1.76-26.05-5.28-8.17-3.52-15.31-8.33-21.41-14.43-6.1-6.1-10.91-13.24-14.44-21.41-3.52-8.17-5.28-16.85-5.28-26.05Zm30.56,0c0,4.98.96,9.69,2.89,14.15,1.92,4.46,4.55,8.36,7.89,11.69,3.33,3.33,7.2,5.96,11.62,7.89,4.41,1.93,9.15,2.89,14.22,2.89s9.81-.96,14.22-2.89c4.41-1.92,8.26-4.55,11.55-7.89,3.28-3.33,5.87-7.23,7.75-11.69,1.88-4.46,2.82-9.18,2.82-14.15s-.94-9.83-2.82-14.29c-1.88-4.46-4.46-8.33-7.75-11.62-3.29-3.28-7.14-5.89-11.55-7.82-4.41-1.92-9.15-2.89-14.22-2.89s-9.81.96-14.22,2.89c-4.41,1.93-8.29,4.53-11.62,7.82-3.33,3.29-5.96,7.16-7.89,11.62-1.92,4.46-2.89,9.22-2.89,14.29Z"/>
    <path class="cls-1" d="m994.15,57.7h14.51c2.16,0,4.18.4,6.06,1.2,1.88.8,3.5,1.88,4.86,3.24,1.36,1.36,2.44,2.98,3.24,4.86.8,1.88,1.2,3.85,1.2,5.91s-.4,4.18-1.2,6.06c-.8,1.88-1.88,3.5-3.24,4.86-1.36,1.36-2.98,2.44-4.86,3.24-1.88.8-3.9,1.2-6.06,1.2h-14.51v85.2c0,2.16-.4,4.18-1.2,6.06-.8,1.88-1.9,3.52-3.31,4.93-1.41,1.41-3.03,2.51-4.86,3.31-1.83.8-3.78,1.2-5.84,1.2s-4.16-.4-5.99-1.2c-1.83-.8-3.45-1.9-4.86-3.31-1.41-1.41-2.51-3.05-3.31-4.93-.8-1.88-1.2-3.89-1.2-6.06v-85.2h-9.01c-2.16,0-4.18-.4-6.06-1.2-1.88-.8-3.5-1.9-4.86-3.31-1.36-1.41-2.44-3.05-3.24-4.93-.8-1.88-1.2-3.85-1.2-5.92s.4-4.04,1.2-5.91c.8-1.88,1.88-3.5,3.24-4.86,1.36-1.36,2.98-2.44,4.86-3.24,1.88-.8,3.89-1.2,6.06-1.2h9.01v-24.08c0-2.16.4-4.16,1.2-5.99.79-1.83,1.9-3.43,3.31-4.79,1.41-1.36,3.07-2.44,5-3.24,1.92-.8,3.97-1.2,6.13-1.2s4.01.4,5.84,1.2c1.83.8,3.4,1.88,4.72,3.24,1.31,1.36,2.37,2.96,3.17,4.79.79,1.83,1.2,3.83,1.2,5.99v24.08Z"/>
  </g>
  <path class="cls-1" d="m263.05,75.16c-2.2-7.69-5.32-14.87-9.36-21.54-4.04-6.67-8.85-12.77-14.44-18.32-5.59-5.53-11.79-10.28-18.58-14.22-6.81-3.94-14.09-7-21.83-9.16-7.75-2.16-15.77-3.24-24.03-3.24H18.2c-2.16,0-4.16.39-5.98,1.14-1.84.73-3.43,1.79-4.79,3.16-1.37,1.37-2.45,2.96-3.24,4.79-.8,1.82-1.2,3.81-1.2,5.98v124.69c-.1,6.53-.47,13.03-1.08,19.54L.05,187.69c-.04.33-.06.67-.04,1.02.14,2.69,1.47,5.16,3.65,6.75.1.08.2.14.31.22,2.49,1.67,5.63,2,8.42.86l12.95-3.47c10.12-2.69,20.56-4.06,31.04-4.06l-.06-.06h118.49c8.26,0,16.28-1.08,24.03-3.24,7.73-2.16,15.01-5.18,21.83-9.08,6.79-3.9,12.99-8.57,18.58-14.01,5.59-5.45,10.4-11.5,14.44-18.17,4.04-6.67,7.16-13.83,9.36-21.48,2.2-7.65,3.3-15.6,3.3-23.86s-1.1-16.24-3.3-23.95Zm-31.96,46.61c-3.16,7.14-7.45,13.42-12.89,18.81-5.45,5.41-11.83,9.73-19.15,12.95-7.32,3.24-15.16,4.87-23.52,4.87H33.56V39.26h141.97c8.26,0,16.05,1.65,23.38,5,7.32,3.32,13.73,7.77,19.21,13.3,5.51,5.55,9.81,11.93,12.97,19.15,3.14,7.24,4.71,14.79,4.71,22.68s-1.57,15.26-4.71,22.38Z"/>
  <g>
    <path class="cls-1" d="m191.71,105.31c-4.29,0-7.77-3.48-7.77-7.77,0-7.51-6.11-13.62-13.61-13.62s-13.61,6.11-13.61,13.62c0,4.29-3.48,7.77-7.77,7.77s-7.77-3.48-7.77-7.77c0-16.08,13.08-29.15,29.15-29.15s29.15,13.08,29.15,29.15c0,4.29-3.48,7.77-7.77,7.77Z"/>
    <path class="cls-1" d="m108.9,105.31c-4.29,0-7.77-3.48-7.77-7.77,0-7.51-6.11-13.62-13.61-13.62s-13.61,6.11-13.61,13.62c0,4.29-3.48,7.77-7.77,7.77s-7.77-3.48-7.77-7.77c0-16.08,13.08-29.15,29.15-29.15s29.15,13.08,29.15,29.15c0,4.29-3.48,7.77-7.77,7.77Z"/>
  </g>
</svg>