<?xml version="1.0" encoding="UTF-8"?>
<svg id="Layer_1" data-name="Layer 1" xmlns="http://www.w3.org/2000/svg" viewBox="0 0 1024 204.64">
  <defs>
    <style>
      .cls-1 {
        fill: #fff;
        stroke-width: 0px;
      }
    </style>
  </defs>
  <g>
    <path class="cls-1" d="m184.41,0H61.8C30.18,0,4.54,25.63,4.54,57.26v67.98c0,11.96-.57,23.92-1.69,35.83L.06,190.44c-.05.5-.08,1.01-.05,1.51.2,4.02,2.2,7.7,5.43,10.08.15.12.3.22.45.32,3.73,2.51,8.42,2.98,12.58,1.27l19.3-5.15c15.1-4.03,30.66-6.07,46.29-6.07h100.36c31.62,0,57.26-25.63,57.26-57.26V57.26c0-31.62-25.63-57.26-57.26-57.26Zm33.33,135.15c0,18.41-14.92,33.33-33.33,33.33H61.8c-18.41,0-33.33-14.92-33.33-33.33V57.26c0-18.41,14.92-33.33,33.33-33.33h122.61c18.41,0,33.33,14.92,33.33,33.33v77.89Z"/>
    <path class="cls-1" d="m184.02,103.1c-4.17,0-7.55-3.38-7.55-7.55,0-7.3-5.94-13.24-13.24-13.24s-13.24,5.94-13.24,13.24c0,4.17-3.38,7.55-7.55,7.55s-7.55-3.38-7.55-7.55c0-15.63,12.71-28.34,28.34-28.34s28.34,12.71,28.34,28.34c0,4.17-3.38,7.55-7.55,7.55Z"/>
    <path class="cls-1" d="m103.51,103.1c-4.17,0-7.55-3.38-7.55-7.55,0-7.3-5.94-13.24-13.24-13.24s-13.24,5.94-13.24,13.24c0,4.17-3.38,7.55-7.55,7.55s-7.55-3.38-7.55-7.55c0-15.63,12.71-28.34,28.34-28.34s28.34,12.71,28.34,28.34c0,4.17-3.38,7.55-7.55,7.55Z"/>
  </g>
  <g>
    <path class="cls-1" d="m315.03,167.68c-1.72,0-3.3-.32-4.76-.95-1.46-.63-2.73-1.47-3.81-2.52-1.08-1.04-1.94-2.3-2.57-3.75-.63-1.46-.95-3.04-.95-4.76V36.37c0-1.72.32-3.3.95-4.76.63-1.46,1.49-2.72,2.57-3.81,1.08-1.08,2.35-1.92,3.81-2.52,1.46-.6,3.04-.9,4.76-.9h39.29c6.57,0,12.93.86,19.09,2.57,6.16,1.72,11.94,4.14,17.35,7.28s10.34,6.9,14.78,11.31c4.44,4.4,8.27,9.25,11.48,14.55,3.21,5.3,5.69,11.01,7.44,17.13,1.75,6.12,2.63,12.46,2.63,19.03s-.88,12.89-2.63,18.97c-1.75,6.08-4.24,11.77-7.44,17.07-3.21,5.3-7.04,10.11-11.48,14.44-4.44,4.33-9.37,8.04-14.78,11.14-5.41,3.1-11.19,5.5-17.35,7.22-6.16,1.72-12.52,2.57-19.09,2.57h-39.29Zm12.2-119v94.71h27.65c6.64,0,12.87-1.29,18.7-3.86,5.82-2.57,10.9-6.01,15.22-10.3,4.33-4.29,7.74-9.27,10.24-14.95,2.5-5.67,3.75-11.6,3.75-17.8s-1.25-12.28-3.75-18.02c-2.5-5.75-5.93-10.82-10.3-15.22-4.37-4.4-9.46-7.93-15.28-10.58-5.82-2.65-12.02-3.97-18.58-3.97h-27.65Z"/>
    <path class="cls-1" d="m437.95,75.32c0-3.58.69-6.47,2.07-8.68,1.38-2.2,3.82-3.3,7.33-3.3,3.06,0,5.52,1.16,7.39,3.47,1.86,2.31,3.39,5.19,4.59,8.62l.78,4.25c3.73-4.93,8.23-8.83,13.49-11.7,5.26-2.87,11.4-4.35,18.42-4.42h.56c4.03,0,7.15,1.14,9.35,3.41,2.2,2.28,3.3,5.17,3.3,8.68,0,1.72-.34,3.32-1.01,4.81-.67,1.49-1.59,2.78-2.74,3.86-1.16,1.08-2.5,1.94-4.03,2.57-1.53.63-3.15.95-4.87.95h-.56c-4.18.08-8.06.95-11.64,2.63-3.58,1.68-6.68,3.94-9.29,6.77-2.61,2.84-4.7,6.14-6.27,9.91-1.57,3.77-2.43,7.78-2.57,12.03v36.05c0,3.43-1.1,6.36-3.3,8.79-2.2,2.43-5.06,3.64-8.56,3.64-1.72,0-3.34-.34-4.87-1.01-1.53-.67-2.85-1.57-3.97-2.69-1.12-1.12-2-2.42-2.63-3.92-.63-1.49-.95-3.1-.95-4.81v-79.93Z"/>
    <path class="cls-1" d="m613.71,155.81c0,3.51-.71,6.36-2.13,8.56-1.42,2.2-3.88,3.3-7.39,3.3-1.49,0-2.76-.26-3.81-.78-1.05-.52-1.92-1.16-2.63-1.9-.71-.74-1.25-1.47-1.62-2.18-.37-.71-.63-1.29-.78-1.74l-1.79-6.04c-4.78,4.4-10.23,7.84-16.34,10.3-6.12,2.46-12.61,3.69-19.48,3.69-7.39,0-14.33-1.4-20.82-4.2-6.49-2.8-12.15-6.62-16.96-11.47-4.81-4.85-8.6-10.52-11.36-17.02-2.76-6.49-4.14-13.39-4.14-20.71s1.38-14.33,4.14-20.82c2.76-6.49,6.55-12.15,11.36-16.96,4.81-4.81,10.47-8.62,16.96-11.42s13.43-4.2,20.82-4.2c5.9,0,11.51.92,16.85,2.74,5.34,1.83,10.24,4.42,14.72,7.78l.11-36.94c0-3.43,1.08-6.36,3.25-8.79,2.16-2.42,5.04-3.64,8.62-3.64,1.72,0,3.34.34,4.87,1.01,1.53.67,2.85,1.57,3.97,2.69s2,2.43,2.63,3.92c.63,1.49.95,3.1.95,4.81v120.01Zm-26.87-40.19c0-4.03-.77-7.82-2.29-11.36-1.53-3.54-3.62-6.62-6.27-9.24-2.65-2.61-5.75-4.68-9.29-6.21-3.55-1.53-7.29-2.3-11.25-2.3s-7.82.77-11.36,2.3c-3.55,1.53-6.62,3.6-9.24,6.21-2.61,2.61-4.66,5.69-6.16,9.24-1.49,3.55-2.24,7.33-2.24,11.36s.74,7.71,2.24,11.25c1.49,3.55,3.54,6.64,6.16,9.29,2.61,2.65,5.69,4.74,9.24,6.27,3.54,1.53,7.33,2.3,11.36,2.3s7.8-.76,11.31-2.3c3.51-1.53,6.59-3.62,9.24-6.27,2.65-2.65,4.74-5.75,6.27-9.29,1.53-3.54,2.29-7.29,2.29-11.25Z"/>
    <path class="cls-1" d="m648.19,115.62c0,.08.04.11.11.11,0,3.51.71,6.96,2.13,10.36,1.42,3.4,3.38,6.46,5.88,9.18,2.5,2.73,5.43,4.95,8.79,6.66,3.36,1.72,6.98,2.61,10.86,2.69,3.58.15,7-.32,10.24-1.4,3.25-1.08,6.47-2.93,9.68-5.54,1.19-.97,2.52-1.92,3.97-2.85,1.46-.93,2.98-1.59,4.59-1.96,1.6-.37,3.3-.35,5.09.06,1.79.41,3.69,1.47,5.71,3.19,1.34,1.12,2.33,2.45,2.97,3.97.63,1.53.93,3.13.9,4.81-.04,1.68-.43,3.36-1.18,5.04s-1.83,3.23-3.25,4.65c-4.63,4.7-10.13,8.28-16.51,10.75-6.38,2.46-13.08,3.69-20.1,3.69-7.46,0-14.48-1.36-21.05-4.09-6.57-2.72-12.3-6.47-17.18-11.25-4.89-4.78-8.75-10.39-11.59-16.85-2.84-6.45-4.25-13.41-4.25-20.88l.11-.11-.11-.11c0-7.46,1.42-14.46,4.25-20.99,2.83-6.53,6.7-12.2,11.59-17.02,4.89-4.81,10.62-8.6,17.18-11.36,6.57-2.76,13.58-4.14,21.05-4.14s13.81,1.18,20.15,3.53c6.34,2.35,11.83,5.88,16.46,10.58,1.42,1.49,2.5,3.06,3.25,4.7.75,1.64,1.14,3.3,1.18,4.98.04,1.68-.26,3.28-.9,4.81-.63,1.53-1.62,2.89-2.97,4.09-2.02,1.72-3.92,2.78-5.71,3.19-1.79.41-3.49.41-5.09,0-1.61-.41-3.14-1.08-4.59-2.01-1.46-.93-2.78-1.88-3.97-2.85-3.21-2.61-6.44-4.42-9.68-5.43s-6.66-1.44-10.24-1.29c-3.81.15-7.39,1.06-10.75,2.74-3.36,1.68-6.29,3.88-8.79,6.61-2.5,2.73-4.48,5.78-5.93,9.18-1.46,3.4-2.18,6.88-2.18,10.47l-.11.11Z"/>
    <path class="cls-1" d="m832.18,160.52c-.63,1.42-1.49,2.67-2.57,3.75-1.08,1.08-2.37,1.92-3.86,2.52-1.49.6-3.06.9-4.7.9s-3.3-.3-4.76-.9c-1.46-.6-2.74-1.44-3.86-2.52-1.12-1.08-2-2.33-2.63-3.75-.63-1.42-.95-2.98-.95-4.7v-42.04c0-.26.04-.5.11-.73-.15-3.73-.84-7.2-2.07-10.41-1.23-3.21-2.95-6.01-5.15-8.4-2.2-2.39-4.83-4.27-7.89-5.65-3.06-1.38-6.46-2.07-10.19-2.07s-7.33.9-10.58,2.69c-3.25,1.79-6.08,4.16-8.51,7.11-2.43,2.95-4.33,6.29-5.71,10.02-1.38,3.73-2.07,7.5-2.07,11.31v37.95c0,1.72-.32,3.3-.95,4.76-.63,1.46-1.49,2.73-2.57,3.81-1.08,1.08-2.37,1.94-3.86,2.57-1.49.63-3.06.95-4.7.95s-3.3-.32-4.76-.95c-1.46-.63-2.74-1.49-3.86-2.57-1.12-1.08-2-2.35-2.63-3.81-.63-1.46-.95-3.04-.95-4.76V35.69c0-1.72.32-3.32.95-4.81.63-1.49,1.51-2.8,2.63-3.92,1.12-1.12,2.42-2,3.92-2.63,1.49-.63,3.06-.95,4.7-.95s3.21.32,4.7.95c1.49.63,2.78,1.51,3.86,2.63,1.08,1.12,1.94,2.43,2.57,3.92.63,1.49.95,3.1.95,4.81v43.1c3.88-5,8.47-9.01,13.77-12.03,5.3-3.02,11.23-4.53,17.8-4.53,7.09,0,13.41,1.36,18.98,4.09,5.56,2.73,10.24,6.42,14.05,11.08,3.81,4.66,6.72,10.13,8.73,16.4,2.02,6.27,3.02,12.95,3.02,20.04v41.98c0,1.72-.32,3.28-.95,4.7Z"/>
    <path class="cls-1" d="m843.2,115.62c0-7.39,1.4-14.31,4.2-20.77,2.8-6.45,6.62-12.11,11.48-16.96,4.85-4.85,10.52-8.68,17.02-11.47,6.49-2.8,13.39-4.2,20.71-4.2,6.34,0,12.37,1.05,18.08,3.13,5.71,2.09,10.91,4.96,15.62,8.62,1.27-3.13,2.7-5.69,4.31-7.67,1.6-1.98,3.82-2.97,6.66-2.97,3.51,0,5.97,1.1,7.39,3.3,1.42,2.2,2.13,5.09,2.13,8.68v79.93c0,1.72-.32,3.32-.95,4.81-.63,1.49-1.51,2.8-2.63,3.92-1.12,1.12-2.44,2.01-3.97,2.69-1.53.67-3.15,1.01-4.87,1.01-3.06,0-5.6-.9-7.61-2.69-2.02-1.79-3.32-4.03-3.92-6.72-4.41,3.29-9.14,5.9-14.22,7.84-5.08,1.94-10.41,2.91-16.01,2.91-7.32,0-14.22-1.4-20.71-4.2-6.49-2.8-12.17-6.62-17.02-11.47-4.85-4.85-8.68-10.52-11.48-17.02-2.8-6.49-4.2-13.39-4.2-20.71Zm24.29,0c0,3.96.76,7.71,2.29,11.25,1.53,3.55,3.62,6.64,6.27,9.29,2.65,2.65,5.73,4.74,9.23,6.27,3.51,1.53,7.28,2.3,11.31,2.3s7.8-.76,11.31-2.3c3.51-1.53,6.57-3.62,9.18-6.27,2.61-2.65,4.66-5.75,6.16-9.29,1.49-3.54,2.24-7.29,2.24-11.25s-.75-7.82-2.24-11.36c-1.49-3.54-3.55-6.62-6.16-9.24-2.61-2.61-5.67-4.68-9.18-6.21-3.51-1.53-7.28-2.3-11.31-2.3s-7.8.77-11.31,2.3c-3.51,1.53-6.59,3.6-9.23,6.21-2.65,2.61-4.74,5.69-6.27,9.24-1.53,3.55-2.29,7.33-2.29,11.36Z"/>
    <path class="cls-1" d="m1000.27,63.34h11.53c1.71,0,3.32.32,4.81.95,1.49.63,2.78,1.49,3.86,2.57,1.08,1.08,1.94,2.37,2.57,3.86.63,1.49.95,3.06.95,4.7s-.32,3.32-.95,4.81c-.63,1.49-1.49,2.78-2.57,3.86-1.08,1.08-2.37,1.94-3.86,2.57-1.49.63-3.1.95-4.81.95h-11.53v67.73c0,1.72-.32,3.32-.95,4.81-.63,1.49-1.51,2.8-2.63,3.92s-2.41,2-3.86,2.63c-1.46.63-3.01.95-4.65.95s-3.3-.32-4.76-.95c-1.46-.63-2.74-1.51-3.86-2.63s-2-2.42-2.63-3.92c-.63-1.49-.95-3.1-.95-4.81v-67.73h-7.16c-1.72,0-3.32-.32-4.81-.95-1.49-.63-2.78-1.51-3.86-2.63-1.08-1.12-1.94-2.42-2.58-3.92-.63-1.49-.95-3.06-.95-4.7s.32-3.21.95-4.7c.63-1.49,1.49-2.78,2.58-3.86,1.08-1.08,2.37-1.94,3.86-2.57,1.49-.63,3.1-.95,4.81-.95h7.16v-19.14c0-1.72.32-3.3.95-4.76.63-1.46,1.51-2.72,2.63-3.81,1.12-1.08,2.44-1.94,3.97-2.58,1.53-.63,3.15-.95,4.87-.95s3.19.32,4.65.95c1.46.63,2.7,1.49,3.75,2.58,1.04,1.08,1.88,2.35,2.52,3.81.63,1.46.95,3.04.95,4.76v19.14Z"/>
  </g>
</svg>