<?xml version="1.0" encoding="UTF-8"?>
<svg id="Layer_1" data-name="Layer 1" xmlns="http://www.w3.org/2000/svg" viewBox="0 0 512 512">
  <defs>
    <style>
      .cls-1 {
        fill: #00a9ce;
        stroke-width: 0px;
      }
    </style>
  </defs>
  <path class="cls-1" d="m390.7,39.22H130.92c-66.99,0-121.3,54.31-121.3,121.3v144.02c0,25.34-1.2,50.68-3.59,75.91L.13,442.68c-.1,1.07-.17,2.14-.12,3.21.43,8.51,4.65,16.32,11.51,21.36.32.24.64.46.95.69,7.9,5.31,17.83,6.31,26.64,2.69l40.88-10.91c31.99-8.54,64.96-12.87,98.07-12.87h212.61c66.99,0,121.3-54.31,121.3-121.3v-165.02c0-66.99-54.31-121.3-121.3-121.3Zm70.61,286.32c0,39-31.61,70.61-70.61,70.61H130.92c-39,0-70.61-31.61-70.61-70.61v-165.02c0-39,31.61-70.61,70.61-70.61h259.77c39,0,70.61,31.61,70.61,70.61v165.02Z"/>
  <path class="cls-1" d="m389.86,257.65c-8.84,0-16-7.16-16-16,0-15.47-12.58-28.04-28.04-28.04s-28.04,12.58-28.04,28.04c0,8.84-7.16,16-16,16s-16-7.16-16-16c0-33.11,26.94-60.05,60.05-60.05s60.05,26.94,60.05,60.05c0,8.84-7.16,16-16,16Z"/>
  <path class="cls-1" d="m219.29,257.65c-8.84,0-16-7.16-16-16,0-15.47-12.58-28.04-28.04-28.04s-28.04,12.58-28.04,28.04c0,8.84-7.16,16-16,16s-16-7.16-16-16c0-33.11,26.94-60.05,60.05-60.05s60.05,26.94,60.05,60.05c0,8.84-7.16,16-16,16Z"/>
</svg>