<?xml version="1.0" encoding="UTF-8"?>
<svg id="Layer_1" data-name="Layer 1" xmlns="http://www.w3.org/2000/svg" viewBox="0 0 512 512">
  <defs>
    <style>
      .cls-1 {
        fill: #222878;
        stroke-width: 0px;
      }
    </style>
  </defs>
  <g>
    <path class="cls-1" d="m143.38,241.22c0-2.25.43-4.07,1.3-5.46.87-1.38,2.41-2.08,4.61-2.08,1.92,0,3.47.73,4.65,2.18,1.17,1.46,2.14,3.26,2.89,5.42l.49,2.68c2.35-3.1,5.18-5.55,8.49-7.36,3.31-1.81,7.17-2.73,11.58-2.78h.35c2.54,0,4.49.72,5.88,2.15,1.38,1.43,2.08,3.25,2.08,5.46,0,1.08-.21,2.09-.63,3.03-.42.94-1,1.75-1.73,2.43-.73.68-1.57,1.22-2.53,1.62-.96.4-1.98.6-3.06.6h-.35c-2.63.05-5.07.6-7.32,1.65s-4.2,2.48-5.84,4.26c-1.64,1.78-2.96,3.86-3.94,6.23-.99,2.37-1.53,4.89-1.62,7.57v22.67c0,2.16-.69,4-2.08,5.53-1.39,1.53-3.18,2.29-5.39,2.29-1.08,0-2.1-.21-3.06-.63-.96-.42-1.8-.99-2.5-1.69s-1.26-1.52-1.65-2.46c-.4-.94-.6-1.95-.6-3.03v-50.28Z"/>
    <path class="cls-1" d="m253.93,291.85c0,2.21-.45,4-1.34,5.39-.89,1.38-2.44,2.08-4.65,2.08-.94,0-1.74-.16-2.39-.49-.66-.33-1.21-.73-1.66-1.2-.45-.47-.79-.93-1.02-1.37-.24-.45-.4-.81-.49-1.09l-1.13-3.8c-3,2.77-6.43,4.93-10.28,6.48-3.85,1.55-7.93,2.32-12.25,2.32-4.65,0-9.01-.88-13.1-2.64s-7.64-4.17-10.67-7.22c-3.03-3.05-5.41-6.62-7.15-10.7-1.74-4.08-2.61-8.43-2.61-13.03s.87-9.01,2.61-13.1c1.74-4.08,4.12-7.64,7.15-10.67,3.03-3.03,6.58-5.42,10.67-7.18s8.45-2.64,13.1-2.64c3.71,0,7.24.58,10.6,1.73,3.36,1.15,6.44,2.78,9.26,4.89l.07-23.24c0-2.16.68-4,2.04-5.53,1.36-1.52,3.17-2.29,5.42-2.29,1.08,0,2.1.21,3.06.63.96.42,1.8.99,2.5,1.69s1.25,1.53,1.65,2.46c.4.94.6,1.95.6,3.03v75.48Zm-16.9-25.28c0-2.53-.48-4.92-1.44-7.15-.96-2.23-2.28-4.17-3.94-5.81-1.67-1.64-3.62-2.95-5.85-3.91-2.23-.96-4.59-1.44-7.08-1.44s-4.92.48-7.15,1.44c-2.23.96-4.17,2.27-5.81,3.91-1.64,1.64-2.93,3.58-3.87,5.81-.94,2.23-1.41,4.61-1.41,7.15s.47,4.85,1.41,7.08c.94,2.23,2.23,4.18,3.87,5.84,1.64,1.67,3.58,2.98,5.81,3.94,2.23.96,4.61,1.44,7.15,1.44s4.91-.48,7.11-1.44c2.21-.96,4.14-2.28,5.81-3.94,1.67-1.67,2.98-3.61,3.94-5.84.96-2.23,1.44-4.59,1.44-7.08Z"/>
    <path class="cls-1" d="m275.62,266.57s.02.07.07.07c0,2.21.45,4.38,1.34,6.51.89,2.14,2.12,4.06,3.7,5.77,1.57,1.71,3.42,3.11,5.53,4.19,2.11,1.08,4.39,1.64,6.83,1.69,2.25.09,4.4-.2,6.44-.88,2.04-.68,4.07-1.84,6.09-3.49.75-.61,1.58-1.21,2.5-1.8.92-.59,1.88-1,2.89-1.23,1.01-.23,2.08-.22,3.2.03,1.13.26,2.32.93,3.59,2.01.84.7,1.47,1.54,1.87,2.5.4.96.59,1.97.56,3.03-.02,1.06-.27,2.11-.74,3.17s-1.15,2.03-2.04,2.92c-2.91,2.96-6.37,5.21-10.39,6.76-4.01,1.55-8.23,2.32-12.64,2.32-4.69,0-9.11-.86-13.24-2.57-4.13-1.71-7.73-4.07-10.81-7.08-3.07-3-5.5-6.54-7.29-10.6-1.78-4.06-2.68-8.44-2.68-13.13l.07-.07-.07-.07c0-4.69.89-9.09,2.68-13.2,1.78-4.11,4.21-7.68,7.29-10.7s6.68-5.41,10.81-7.15c4.13-1.74,8.54-2.61,13.24-2.61s8.68.74,12.67,2.22c3.99,1.48,7.44,3.7,10.35,6.65.89.94,1.57,1.93,2.04,2.96.47,1.03.72,2.08.74,3.13.02,1.06-.17,2.07-.56,3.03-.4.96-1.02,1.82-1.87,2.57-1.27,1.08-2.47,1.75-3.59,2.01-1.13.26-2.2.26-3.2,0-1.01-.26-1.97-.68-2.89-1.27-.92-.59-1.75-1.19-2.5-1.8-2.02-1.64-4.05-2.78-6.09-3.42s-4.19-.9-6.44-.81c-2.39.09-4.65.67-6.76,1.73-2.11,1.06-3.96,2.44-5.53,4.15-1.57,1.71-2.82,3.64-3.73,5.77-.92,2.14-1.37,4.33-1.37,6.58l-.07.07Z"/>
    <path class="cls-1" d="m391.34,294.81c-.4.89-.94,1.68-1.62,2.36-.68.68-1.49,1.21-2.43,1.58-.94.38-1.93.56-2.96.56s-2.08-.19-2.99-.56c-.92-.38-1.73-.9-2.43-1.58-.7-.68-1.26-1.47-1.66-2.36-.4-.89-.6-1.88-.6-2.96v-26.44c0-.16.02-.32.07-.46-.09-2.35-.53-4.53-1.3-6.55-.77-2.02-1.85-3.78-3.24-5.28-1.39-1.5-3.04-2.69-4.96-3.56-1.93-.87-4.06-1.3-6.41-1.3s-4.61.56-6.65,1.69c-2.04,1.13-3.83,2.62-5.35,4.47-1.53,1.85-2.72,3.96-3.59,6.3-.87,2.35-1.3,4.72-1.3,7.11v23.87c0,1.08-.2,2.08-.6,2.99-.4.92-.94,1.71-1.62,2.39-.68.68-1.49,1.22-2.43,1.62-.94.4-1.93.6-2.96.6s-2.08-.2-2.99-.6c-.92-.4-1.73-.94-2.43-1.62-.7-.68-1.26-1.48-1.65-2.39-.4-.92-.6-1.91-.6-2.99v-75.41c0-1.08.2-2.09.6-3.03.4-.94.95-1.76,1.65-2.46s1.52-1.26,2.47-1.65c.94-.4,1.92-.6,2.96-.6s2.02.2,2.96.6c.94.4,1.75.95,2.43,1.65.68.7,1.22,1.53,1.62,2.46.4.94.6,1.95.6,3.03v27.11c2.44-3.14,5.33-5.67,8.66-7.57,3.33-1.9,7.06-2.85,11.2-2.85,4.46,0,8.44.86,11.94,2.57,3.5,1.71,6.44,4.04,8.84,6.97,2.39,2.93,4.22,6.37,5.49,10.32,1.27,3.94,1.9,8.14,1.9,12.6v26.41c0,1.08-.2,2.07-.6,2.96Z"/>
    <path class="cls-1" d="m398.28,266.57c0-4.65.88-9,2.64-13.06,1.76-4.06,4.17-7.62,7.22-10.67,3.05-3.05,6.62-5.46,10.7-7.22,4.08-1.76,8.42-2.64,13.03-2.64,3.99,0,7.78.66,11.37,1.97,3.59,1.32,6.87,3.12,9.82,5.42.8-1.97,1.7-3.58,2.71-4.82,1.01-1.24,2.41-1.87,4.19-1.87,2.21,0,3.76.69,4.65,2.08.89,1.39,1.34,3.2,1.34,5.46v50.28c0,1.08-.2,2.09-.6,3.03-.4.94-.95,1.76-1.66,2.46s-1.54,1.27-2.5,1.69c-.96.42-1.98.63-3.06.63-1.93,0-3.52-.56-4.79-1.69-1.27-1.13-2.09-2.53-2.47-4.22-2.77,2.07-5.75,3.71-8.94,4.93-3.19,1.22-6.55,1.83-10.07,1.83-4.6,0-8.94-.88-13.03-2.64-4.08-1.76-7.65-4.17-10.7-7.22-3.05-3.05-5.46-6.62-7.22-10.7-1.76-4.08-2.64-8.43-2.64-13.03Zm15.28,0c0,2.49.48,4.85,1.44,7.08.96,2.23,2.28,4.18,3.94,5.84,1.67,1.67,3.6,2.98,5.81,3.94,2.21.96,4.58,1.44,7.11,1.44s4.91-.48,7.11-1.44c2.21-.96,4.13-2.28,5.77-3.94,1.64-1.67,2.93-3.61,3.87-5.84.94-2.23,1.41-4.59,1.41-7.08s-.47-4.92-1.41-7.15c-.94-2.23-2.23-4.17-3.87-5.81-1.64-1.64-3.57-2.95-5.77-3.91-2.21-.96-4.58-1.44-7.11-1.44s-4.91.48-7.11,1.44c-2.21.96-4.14,2.27-5.81,3.91-1.67,1.64-2.98,3.58-3.94,5.81-.96,2.23-1.44,4.61-1.44,7.15Z"/>
    <path class="cls-1" d="m497.07,233.69h7.25c1.08,0,2.09.2,3.03.6.94.4,1.75.94,2.43,1.62.68.68,1.22,1.49,1.62,2.43.4.94.6,1.93.6,2.96s-.2,2.09-.6,3.03c-.4.94-.94,1.75-1.62,2.43-.68.68-1.49,1.22-2.43,1.62-.94.4-1.95.6-3.03.6h-7.25v42.6c0,1.08-.2,2.09-.6,3.03-.4.94-.95,1.76-1.66,2.46s-1.51,1.26-2.43,1.65c-.92.4-1.89.6-2.92.6s-2.08-.2-2.99-.6c-.92-.4-1.73-.95-2.43-1.65s-1.26-1.52-1.65-2.46c-.4-.94-.6-1.95-.6-3.03v-42.6h-4.51c-1.08,0-2.09-.2-3.03-.6-.94-.4-1.75-.95-2.43-1.65-.68-.7-1.22-1.52-1.62-2.46-.4-.94-.6-1.92-.6-2.96s.2-2.02.6-2.96c.4-.94.94-1.75,1.62-2.43.68-.68,1.49-1.22,2.43-1.62.94-.4,1.95-.6,3.03-.6h4.51v-12.04c0-1.08.2-2.08.6-2.99.4-.92.95-1.71,1.65-2.39.7-.68,1.54-1.22,2.5-1.62.96-.4,1.98-.6,3.06-.6s2.01.2,2.92.6c.92.4,1.7.94,2.36,1.62.66.68,1.19,1.48,1.58,2.39.4.92.6,1.91.6,2.99v12.04Z"/>
  </g>
  <path class="cls-1" d="m131.53,242.42c-1.1-3.84-2.66-7.43-4.68-10.77-2.02-3.33-4.43-6.38-7.22-9.16-2.79-2.76-5.89-5.14-9.29-7.11-3.41-1.97-7.05-3.5-10.91-4.58-3.88-1.08-7.88-1.62-12.01-1.62H9.1c-1.08,0-2.08.19-2.99.57-.92.37-1.71.9-2.4,1.58-.68.68-1.22,1.48-1.62,2.4-.4.91-.6,1.91-.6,2.99v62.34c-.05,3.26-.23,6.52-.54,9.77l-.93,9.85c-.02.16-.03.34-.02.51.07,1.35.73,2.58,1.83,3.38.05.04.1.07.15.11,1.24.84,2.81,1,4.21.43l6.48-1.73c5.06-1.35,10.28-2.03,15.52-2.03l-.03-.03h59.24c4.13,0,8.14-.54,12.01-1.62,3.87-1.08,7.51-2.59,10.91-4.54,3.4-1.95,6.5-4.28,9.29-7.01,2.79-2.72,5.2-5.75,7.22-9.09,2.02-3.33,3.58-6.91,4.68-10.74,1.1-3.82,1.65-7.8,1.65-11.93s-.55-8.12-1.65-11.97Zm-15.98,23.3c-1.58,3.57-3.72,6.71-6.45,9.4-2.72,2.7-5.92,4.86-9.58,6.48-3.66,1.62-7.58,2.44-11.76,2.44H16.78v-59.57h70.98c4.13,0,8.03.83,11.69,2.5,3.66,1.66,6.86,3.89,9.61,6.65,2.75,2.77,4.91,5.97,6.49,9.58,1.57,3.62,2.36,7.39,2.36,11.34s-.79,7.63-2.36,11.19Z"/>
  <g>
    <path class="cls-1" d="m95.86,257.5c-2.15,0-3.88-1.74-3.88-3.88,0-3.75-3.05-6.81-6.81-6.81s-6.81,3.05-6.81,6.81c0,2.15-1.74,3.88-3.88,3.88s-3.88-1.74-3.88-3.88c0-8.04,6.54-14.58,14.58-14.58s14.58,6.54,14.58,14.58c0,2.15-1.74,3.88-3.88,3.88Z"/>
    <path class="cls-1" d="m54.45,257.5c-2.15,0-3.88-1.74-3.88-3.88,0-3.75-3.05-6.81-6.81-6.81s-6.81,3.05-6.81,6.81c0,2.15-1.74,3.88-3.88,3.88s-3.88-1.74-3.88-3.88c0-8.04,6.54-14.58,14.58-14.58s14.58,6.54,14.58,14.58c0,2.15-1.74,3.88-3.88,3.88Z"/>
  </g>
</svg>