<?xml version="1.0" encoding="UTF-8" standalone="no"?>
<!DOCTYPE svg PUBLIC "-//W3C//DTD SVG 1.1//EN" "http://www.w3.org/Graphics/SVG/1.1/DTD/svg11.dtd">
<svg width="100%" height="100%" viewBox="0 0 512 512" version="1.1" xmlns="http://www.w3.org/2000/svg" xmlns:xlink="http://www.w3.org/1999/xlink" xml:space="preserve" xmlns:serif="http://www.serif.com/" style="fill-rule:evenodd;clip-rule:evenodd;stroke-linejoin:bevel;stroke-miterlimit:1.5;">
    <g transform="matrix(1,0,0,1,-3091,0)">
        <g id="Lottie-SVG" transform="matrix(0.427379,0,0,2.151261,3087.153589,-856.201681)">
            <rect x="9" y="398" width="1198" height="238" style="fill:none;"/>
            <g id="Drdchat" transform="matrix(2.147832,0,0,1.4396,4735.2547,234.440199)">
                <g transform="matrix(1.412269,0,0,0.453826,-2132.219604,79.869813)">
                    <path d="M285.008,116C296.602,116 306,124.669 306,135.362C306,185.95 306,321.838 306,375.129C306,387.208 295.384,397 282.288,397C214.547,397 25,397 25,397L25,116L285.008,116Z" style="fill:rgb(226,184,56);"/>
                </g>
                <g transform="matrix(2.51331,0,0,0.644297,-2370.47315,51.447519)">
                    <path d="M176,131C176,131 179.815,160.044 186.14,188.327C191.754,213.432 201.191,229.89 207,237C216.406,248.513 183,244 183,244C183,244 188.835,311.636 189,319C189.102,323.534 107.171,320.116 107,320C106.829,319.884 107,130 107,130L176,131Z" style="fill:rgb(175,56,226);"/>
                    <path d="M176,131C176,131 179.815,160.044 186.14,188.327C191.754,213.432 201.191,229.89 207,237C216.406,248.513 183,244 183,244C183,244 188.835,311.636 189,319C189.102,323.534 107.171,320.116 107,320C106.829,319.884 107,130 107,130L176,131ZM110.576,315.997C122.533,316.507 162.677,317.903 180.312,316.687C182.078,316.565 183.93,316.302 185.236,316.091C184.294,300.998 179.406,244.415 179.406,244.415L183.419,239.852C183.419,239.852 191.472,240.944 198.392,240.644C200.314,240.561 202.143,240.374 203.646,239.998C203.859,239.945 204.09,239.871 204.313,239.793C198.276,232.37 188.452,215.351 182.643,189.373C177.593,166.789 174.131,143.725 172.913,135.132L110.608,134.229C110.587,159.152 110.483,286.837 110.57,314.637L110.576,315.997Z" style="fill:white;"/>
                </g>
                <g transform="matrix(-2.134469,0.364999,-1.304251,-0.577094,-1814.056106,-220.643158)">
                    <path d="M345,-459C349.076,-455.41 357.229,-448.229 368,-459" style="fill:none;stroke:white;stroke-width:3.66px;"/>
                </g>
                <g transform="matrix(4.098728,0.706561,-1.814226,0.796303,-4249.45741,345.25155)">
                    <path d="M345,-459C349.076,-455.41 357.229,-448.229 368,-459" style="fill:none;stroke:white;stroke-width:2.31px;stroke-linejoin:round;"/>
                </g>
                <g transform="matrix(1.089398,0,0,0.322898,-2190.671906,123.301717)">
                    <path d="M30.994,419.999C31.988,419.156 39.031,413.184 42.637,408.601C43.579,407.405 43.157,407.155 43.447,5.499C43.45,0.735 45.793,2.74 50.5,2.743C249.73,2.863 403.978,2.377 420.52,3.102C457.187,4.71 484.82,29.367 491.239,65.565C492.454,72.417 492.414,380.647 491.239,386.435C478.768,447.866 425.204,448.63 417.455,449.184C408.618,449.815 74.337,449.316 44.501,449.271C3.165,449.21 2.463,449.517 2.515,448.501C2.553,447.766 24.906,427.016 30.994,419.999L101.032,61.053C93.305,69.705 94.313,70.985 94.313,131.5C94.313,378.514 94.116,378.668 95.881,383.358C103.062,402.429 129.321,398.633 131.5,398.633C420.85,398.633 420.963,398.807 425.403,397.217C444.709,390.306 441.364,369.075 441.364,349.5C441.364,74.39 441.518,74.329 440.108,69.625C438.969,65.823 432.897,55.74 421.464,53.751C419.533,53.415 118.666,52.511 112.414,54.22C107.39,55.593 105.853,56.249 101.032,61.053L30.994,419.999Z" style="fill:rgb(74,0,145);fill-opacity:1;"/>
                </g>
            </g>
        </g>
    </g>
</svg>
